<?xml version="1.0" standalone="no"?>
<!DOCTYPE svg PUBLIC "-//W3C//DTD SVG 20010904//EN"
 "http://www.w3.org/TR/2001/REC-SVG-20010904/DTD/svg10.dtd">
<svg version="1.0" xmlns="http://www.w3.org/2000/svg"
 width="1164.000000pt" height="284.000000pt" viewBox="0 0 1164.000000 284.000000"
 preserveAspectRatio="xMidYMid meet">

<g transform="translate(0.000000,284.000000) scale(0.100000,-0.100000)"
fill="#000000" stroke="none">
<path d="M7264 2426 c-51 -22 -115 -87 -140 -141 l-24 -50 0 -732 0 -733 -386
-2 -387 -3 -18 -25 c-17 -22 -18 -32 -9 -88 23 -137 71 -220 175 -304 80 -65
148 -90 261 -96 109 -5 180 12 261 64 112 72 187 174 212 292 8 37 11 291 11
825 0 862 -4 815 70 865 67 45 170 18 205 -55 8 -17 15 -43 15 -57 0 -31 32
-66 60 -66 11 0 30 10 41 21 18 18 21 29 16 71 -11 93 -75 177 -162 214 -43
18 -160 18 -201 0z m-174 -1786 c0 -5 -9 -34 -20 -63 -24 -65 -105 -147 -177
-180 -72 -33 -199 -31 -273 4 -70 33 -135 97 -166 162 -43 94 -69 87 306 87
205 0 330 -4 330 -10z"/>
<path d="M5484 1783 c-57 -11 -70 -80 -22 -116 20 -15 35 -18 62 -13 73 14 87
94 21 122 -19 8 -36 13 -37 13 -2 -1 -13 -4 -24 -6z"/>
<path d="M5840 1772 c-46 -25 -72 -79 -78 -163 l-5 -69 -36 0 c-42 0 -61 -14
-61 -45 0 -31 19 -45 62 -45 l38 0 0 -210 c0 -197 1 -211 20 -230 11 -11 33
-20 50 -20 17 0 39 9 50 20 19 19 20 33 20 230 l0 210 48 0 c52 0 72 12 72 45
0 33 -20 45 -72 45 l-48 0 0 53 c0 77 18 97 85 97 50 0 55 2 61 25 8 34 -1 54
-31 65 -44 17 -137 12 -175 -8z"/>
<path d="M2441 1761 c-20 -20 -21 -31 -21 -376 0 -346 1 -356 21 -376 20 -20
29 -20 227 -17 199 3 209 4 251 28 24 14 58 42 74 62 25 31 30 49 34 105 8
102 -27 163 -111 198 l-39 16 38 23 c124 75 111 262 -21 327 -46 22 -62 24
-241 27 -182 3 -193 2 -212 -17z m348 -105 c46 -24 65 -59 58 -108 -10 -78
-66 -107 -204 -108 l-73 0 0 121 0 122 94 -6 c56 -3 106 -12 125 -21z m-28
-316 c92 -18 132 -76 109 -160 -18 -66 -51 -80 -187 -80 l-113 0 0 125 0 125
69 0 c37 0 92 -5 122 -10z"/>
<path d="M6780 1760 c-19 -19 -20 -33 -20 -373 0 -393 1 -397 63 -397 76 1 77
7 77 398 0 328 -1 340 -21 366 -25 32 -70 35 -99 6z"/>
<path d="M5116 1719 c-19 -15 -26 -30 -26 -53 0 -18 -3 -54 -6 -80 -7 -45 -7
-46 -43 -46 -42 0 -61 -14 -61 -46 0 -28 35 -54 72 -54 l28 0 0 -172 c0 -145
3 -179 18 -207 29 -57 63 -76 141 -76 83 0 121 17 121 55 0 37 -18 50 -71 50
-70 0 -73 7 -78 192 l-3 158 44 0 c52 0 88 22 88 54 0 33 -18 44 -75 48 l-50
3 -3 85 c-2 65 -6 88 -19 98 -24 17 -47 15 -77 -9z"/>
<path d="M3322 1532 c-193 -69 -244 -334 -93 -475 63 -59 136 -82 230 -73 79
7 169 49 191 88 14 25 13 29 -5 48 l-20 20 -64 -26 c-139 -56 -255 -16 -277
95 l-6 31 190 0 c223 0 227 2 216 79 -19 137 -105 217 -242 227 -50 3 -81 0
-120 -14z m176 -102 c29 -18 62 -71 62 -100 0 -6 -50 -10 -140 -10 -77 0 -140
2 -140 5 0 22 33 76 59 98 41 34 109 37 159 7z"/>
<path d="M3922 1540 c-85 -18 -136 -68 -118 -115 7 -19 29 -18 133 11 40 10
75 14 98 10 49 -10 87 -48 83 -84 -3 -27 -3 -27 -103 -33 -177 -11 -255 -68
-255 -187 0 -86 60 -147 157 -158 62 -8 126 10 165 45 l32 28 15 -31 c20 -40
69 -48 100 -17 20 20 21 33 21 194 0 94 -5 189 -10 209 -13 45 -52 93 -91 114
-36 18 -169 26 -227 14z m198 -320 c0 -71 -47 -134 -107 -146 -69 -13 -123 22
-123 79 0 61 60 94 173 96 l57 1 0 -30z"/>
<path d="M7523 1532 c-122 -44 -178 -128 -178 -267 0 -93 21 -150 76 -204 71
-71 195 -98 303 -67 83 24 158 99 181 180 42 145 -19 292 -143 348 -64 29
-174 33 -239 10z m188 -109 c43 -36 59 -79 59 -158 0 -79 -16 -122 -59 -158
-59 -49 -169 -28 -199 38 -45 98 -34 206 28 267 34 34 43 38 88 38 40 0 57 -5
83 -27z"/>
<path d="M8930 1541 c-46 -15 -89 -41 -104 -63 l-16 -22 0 22 c0 56 -92 86
-124 40 -14 -19 -16 -71 -16 -358 0 -379 -1 -375 69 -375 63 0 70 17 71 165 0
89 4 120 11 108 17 -29 94 -68 147 -75 93 -11 169 31 217 119 24 44 30 68 33
138 2 47 -1 104 -7 127 -17 61 -70 134 -115 157 -43 21 -126 30 -166 17z m100
-119 c77 -78 61 -291 -25 -330 -69 -31 -144 1 -177 75 -17 38 -20 61 -16 125
7 116 44 158 141 158 40 0 54 -5 77 -28z"/>
<path d="M4406 1524 c-13 -13 -16 -46 -16 -207 0 -206 9 -247 58 -290 69 -61
194 -60 266 4 39 34 46 36 46 11 0 -46 81 -70 113 -34 15 16 17 49 17 259 0
220 -2 241 -18 256 -25 22 -75 21 -95 -1 -14 -16 -17 -43 -17 -168 0 -82 -5
-166 -10 -186 -15 -54 -61 -88 -119 -88 -96 0 -111 35 -111 266 0 143 -2 163
-18 177 -23 21 -76 22 -96 1z"/>
<path d="M5456 1518 c-13 -19 -16 -61 -16 -253 0 -261 3 -275 65 -275 25 0 39
7 55 27 20 26 21 35 18 261 -3 218 -4 235 -22 248 -31 22 -82 18 -100 -8z"/>
<path d="M6127 1522 c-15 -16 -17 -46 -17 -206 0 -182 1 -190 25 -235 14 -25
40 -56 58 -68 69 -48 187 -38 254 20 25 22 33 25 33 13 0 -49 82 -74 120 -36
19 19 20 33 20 253 0 194 -3 236 -16 255 -20 29 -76 30 -104 2 -18 -18 -20
-33 -20 -185 0 -184 -7 -213 -60 -240 -49 -25 -107 -20 -141 14 l-29 29 0 181
c0 168 -1 182 -20 201 -26 26 -81 26 -103 2z"/>
<path d="M8046 1521 c-16 -17 -17 -41 -14 -218 3 -187 4 -200 26 -235 50 -80
155 -109 250 -68 29 13 62 34 72 48 l20 25 0 -25 c0 -54 79 -79 120 -38 19 19
20 33 20 255 0 222 -1 236 -20 255 -26 26 -81 26 -103 2 -14 -16 -17 -44 -17
-181 0 -181 -8 -214 -59 -244 -16 -9 -49 -17 -74 -17 -38 0 -49 5 -71 31 -26
30 -26 32 -26 203 0 160 -2 175 -21 200 -25 32 -77 36 -103 7z"/>
</g>
</svg>
