<?xml version="1.0" standalone="no"?>
<!DOCTYPE svg PUBLIC "-//W3C//DTD SVG 20010904//EN"
 "http://www.w3.org/TR/2001/REC-SVG-20010904/DTD/svg10.dtd">
<svg version="1.0" xmlns="http://www.w3.org/2000/svg"
 width="1020.000000pt" height="1308.000000pt" viewBox="0 0 1020.000000 1308.000000"
 preserveAspectRatio="xMidYMid meet">

<g transform="translate(0.000000,1308.000000) scale(0.100000,-0.100000)"
fill="#000000" stroke="none">
<path d="M4893 13050 c-157 -57 -259 -146 -320 -277 -32 -70 -37 -89 -41 -181
-3 -77 0 -126 13 -189 17 -79 21 -87 66 -130 27 -25 64 -57 84 -70 34 -23 35
-25 35 -92 0 -70 16 -101 52 -101 9 0 21 -7 28 -15 19 -23 50 -255 49 -365 0
-52 2 -113 6 -136 11 -60 -11 -77 -89 -72 -49 3 -83 14 -171 58 -93 46 -123
67 -191 135 -44 44 -94 98 -111 120 -46 60 -128 265 -158 395 -30 128 -49 389
-33 447 14 52 -1 67 -95 92 -170 45 -264 48 -417 16 -36 -8 -92 -19 -125 -25
-55 -9 -167 -48 -182 -64 -3 -3 -15 -6 -26 -6 -11 0 -70 -25 -132 -55 -61 -30
-125 -55 -141 -55 -34 0 -192 -27 -205 -35 -5 -3 -17 -2 -26 3 -10 6 -80 13
-155 17 -125 7 -138 6 -138 -9 0 -9 13 -24 29 -33 40 -24 54 -48 41 -74 -6
-11 -19 -19 -28 -18 -22 4 -93 -33 -128 -66 -15 -14 -33 -25 -41 -25 -22 0
-124 -55 -182 -99 -30 -23 -60 -41 -66 -41 -14 0 -170 -78 -205 -103 -14 -9
-34 -17 -45 -17 -11 0 -45 -12 -75 -26 -30 -14 -84 -32 -120 -39 -36 -8 -90
-22 -120 -31 -30 -9 -94 -24 -141 -34 -142 -31 -174 -57 -105 -85 19 -8 37
-19 41 -25 3 -5 -25 -25 -63 -44 -87 -44 -298 -132 -337 -142 -16 -3 -50 -17
-75 -29 -49 -24 -98 -42 -145 -54 -16 -5 -59 -21 -95 -36 -36 -15 -96 -38
-134 -51 -93 -32 -350 -84 -414 -84 -45 0 -52 -3 -52 -19 0 -20 8 -23 135 -65
28 -9 65 -16 82 -16 18 0 50 -7 70 -15 70 -27 314 -72 508 -95 44 -5 81 -9 83
-9 1 -1 2 -7 2 -14 0 -16 -90 -71 -151 -93 -24 -9 -66 -26 -94 -38 -27 -13
-64 -23 -82 -24 -46 -3 -83 -19 -83 -37 0 -20 24 -24 166 -28 67 -2 126 -7
131 -10 9 -6 524 -22 633 -20 63 1 184 15 218 25 49 15 62 -4 20 -29 -18 -11
-56 -40 -84 -66 -27 -25 -101 -71 -165 -104 -132 -67 -142 -85 -56 -99 65 -11
392 -8 472 5 207 33 260 42 269 50 14 11 126 20 131 10 8 -11 -144 -148 -200
-180 -27 -16 -74 -36 -102 -45 -40 -11 -53 -20 -53 -34 0 -10 3 -21 8 -23 4
-3 104 -1 222 4 217 9 243 13 508 75 57 13 116 24 131 24 38 0 124 27 152 47
27 21 70 24 76 6 2 -6 -6 -17 -19 -24 -13 -7 -38 -29 -56 -51 -37 -42 -134
-114 -200 -147 -23 -12 -42 -28 -42 -36 0 -12 19 -15 109 -15 215 0 591 55
746 110 90 32 105 35 105 18 0 -14 -96 -103 -157 -147 -18 -12 -33 -31 -33
-42 0 -18 6 -18 108 -13 59 3 138 10 175 16 40 6 73 6 78 1 12 -12 -75 -84
-141 -118 -112 -57 -209 -151 -303 -295 -53 -81 -60 -125 -36 -240 28 -135 30
-143 43 -160 6 -8 20 -32 30 -52 10 -21 31 -45 45 -54 14 -10 63 -54 108 -98
117 -114 305 -224 421 -246 29 -5 61 -14 72 -20 10 -5 27 -10 37 -10 10 0 25
-4 33 -10 11 -7 -7 -30 -86 -112 -107 -110 -170 -207 -187 -287 -13 -57 -15
-295 -3 -337 l8 -31 -104 1 c-56 1 -209 -2 -338 -6 -129 -5 -240 -5 -245 0
-15 10 -45 113 -45 152 0 36 -67 228 -85 245 -6 6 -28 36 -49 67 -81 122 -282
272 -381 285 -22 3 -45 10 -52 15 -24 19 -197 48 -253 43 -74 -7 -170 -25
-195 -35 -11 -5 -45 -16 -75 -25 -89 -28 -178 -83 -262 -163 -141 -135 -209
-262 -253 -472 -32 -154 -1 -338 87 -514 74 -147 192 -263 353 -343 73 -37
273 -93 331 -93 l34 0 0 -774 0 -775 -47 -6 c-27 -3 -58 -10 -71 -16 -13 -5
-35 -9 -51 -9 -15 0 -61 -11 -101 -25 -290 -99 -488 -344 -540 -668 -19 -115
8 -321 54 -423 77 -169 223 -329 358 -396 173 -85 332 -120 465 -101 95 14
154 26 214 46 140 46 297 162 379 282 17 25 39 45 49 45 25 0 33 11 19 28 -10
11 -7 25 14 66 37 73 58 144 58 193 0 23 4 45 10 48 6 3 10 18 10 33 0 56 -24
54 526 52 348 0 512 -4 521 -12 9 -7 17 -7 27 1 8 7 27 11 43 9 25 -3 29 -7
34 -53 4 -27 10 -58 14 -67 8 -19 -9 -25 -20 -8 -7 12 -25 13 -25 2 0 -14 163
-311 212 -387 25 -38 70 -113 100 -165 30 -52 65 -111 76 -130 28 -45 28 -74
0 -87 -44 -20 -139 -106 -184 -167 -58 -76 -115 -189 -146 -286 -20 -65 -23
-95 -23 -225 0 -171 12 -228 76 -364 101 -217 292 -369 549 -437 100 -27 291
-25 399 4 209 57 361 164 475 336 96 145 136 281 136 460 -1 127 -11 184 -55
300 -28 75 -27 96 4 96 11 0 22 4 26 10 3 5 28 21 55 36 28 15 50 30 50 35 0
4 11 10 24 13 23 6 227 121 321 181 28 18 66 40 85 49 92 44 172 95 165 105
-7 12 -87 -27 -170 -82 -32 -21 -89 -54 -126 -73 -37 -18 -70 -38 -74 -44 -3
-5 -14 -10 -24 -10 -10 0 -24 -6 -30 -14 -6 -8 -62 -42 -124 -76 -62 -35 -121
-71 -132 -80 -11 -9 -37 -21 -58 -28 -44 -12 -40 -16 -110 88 -39 59 -88 106
-172 167 -22 16 -29 28 -27 49 2 26 1 26 -17 10 -14 -13 -24 -14 -45 -6 -15 5
-31 9 -37 7 -6 -1 -16 5 -22 15 -9 13 -1 26 42 73 28 32 59 72 69 89 9 17 26
32 37 33 11 1 30 4 43 8 18 6 22 3 22 -12 0 -11 -8 -31 -18 -44 -24 -31 -33
-57 -23 -63 4 -3 31 34 60 82 136 225 186 311 209 362 14 30 36 68 49 84 34
41 65 105 57 118 -4 7 -10 5 -16 -6 -5 -9 -16 -16 -23 -16 -12 0 -15 14 -15
60 0 52 2 60 19 60 11 0 26 3 35 6 10 4 19 -3 27 -19 12 -25 12 -26 28 -6 16
19 29 19 526 17 l510 -3 8 -50 c17 -109 26 -152 40 -195 20 -59 75 -168 90
-177 7 -5 19 -21 27 -36 27 -54 181 -190 255 -226 159 -77 256 -103 380 -105
230 -2 443 82 601 239 87 87 174 222 174 270 0 16 7 36 16 46 8 9 24 66 35
125 24 126 21 244 -6 296 -9 18 -19 50 -21 71 -2 21 -10 50 -18 65 -7 15 -32
65 -54 112 -65 137 -155 225 -317 310 -96 52 -167 76 -265 91 -41 6 -81 13
-87 15 -10 3 -13 167 -13 777 l0 774 38 6 c161 26 247 55 367 122 115 64 260
225 308 342 16 37 35 83 43 101 8 18 14 54 14 81 0 31 5 53 15 61 27 23 14
262 -16 295 -5 5 -9 19 -9 31 0 13 -4 26 -10 29 -5 3 -10 21 -10 38 0 66 -120
252 -214 332 -158 133 -330 200 -532 206 -83 2 -193 -12 -239 -30 -11 -5 -53
-21 -94 -36 -131 -49 -234 -130 -355 -279 -32 -39 -42 -47 -62 -42 -26 7 -33
-8 -9 -18 22 -8 19 -32 -15 -103 -17 -35 -35 -90 -40 -121 -19 -112 -21 -127
-26 -149 -4 -23 -4 -23 -262 -25 -219 -3 -257 -5 -257 -18 0 -10 27 -21 90
-35 50 -12 113 -30 140 -40 64 -24 155 -74 155 -86 0 -5 14 -16 31 -25 100
-51 222 -213 267 -356 44 -137 38 -187 -31 -245 -41 -33 -65 -73 -45 -73 7 0
32 23 56 50 24 28 47 50 53 50 13 0 11 -83 -5 -175 -28 -161 -91 -281 -207
-402 -61 -62 -131 -113 -157 -113 -6 0 -14 9 -17 20 -11 35 -26 22 -19 -18 5
-34 3 -39 -21 -50 -14 -7 -32 -12 -39 -12 -7 0 -35 -11 -62 -25 -57 -30 -159
-43 -192 -26 -22 12 -22 13 -22 333 0 275 2 324 15 338 13 15 14 22 3 45 -11
25 -10 29 15 51 33 28 27 52 -6 29 -33 -23 -53 -18 -67 15 -13 30 -24 37 -34
21 -3 -5 -24 -18 -46 -30 -36 -19 -43 -19 -63 -7 -31 20 -127 25 -127 6 0 -5
15 -10 34 -10 19 0 38 -4 41 -10 6 -9 -92 -16 -207 -14 -21 0 -38 -3 -38 -7 0
-5 86 -10 192 -11 201 -3 231 -11 169 -43 -31 -15 -44 -43 -16 -31 8 3 22 9
30 12 25 10 28 -23 6 -55 -25 -34 -27 -51 -7 -51 24 0 46 29 46 61 0 31 9 36
28 17 9 -9 12 -96 12 -330 0 -366 3 -357 -85 -260 -29 31 -56 54 -60 50 -4 -4
7 -22 25 -39 41 -41 63 -76 56 -87 -5 -9 -137 11 -158 24 -5 4 -7 19 -4 35 7
34 -19 42 -29 9 -8 -26 -17 -25 -42 3 -21 22 -23 36 -36 202 -2 28 0 60 5 73
5 16 3 33 -7 52 -8 16 -15 48 -16 72 -1 70 -21 121 -56 143 -31 20 -79 99 -74
123 3 18 -66 100 -98 115 -20 10 -26 19 -26 46 0 31 6 38 60 73 33 21 68 41
78 44 9 4 17 12 17 18 0 12 53 56 67 56 4 0 20 12 34 28 15 15 40 35 57 45
l31 18 27 -41 c15 -22 28 -40 30 -40 14 0 0 44 -23 70 l-26 32 26 24 c14 13
30 24 34 24 14 1 49 35 63 59 6 13 27 43 45 66 35 47 100 194 117 267 13 56
-5 162 -32 181 -9 7 -20 32 -24 57 -9 65 -46 136 -104 205 -58 68 -52 62 -151
155 -84 78 -85 89 -3 110 26 6 58 19 72 28 14 9 42 22 62 28 35 11 41 9 130
-43 128 -76 187 -105 204 -101 8 2 -51 41 -131 86 -80 46 -145 86 -145 88 0 2
31 19 69 39 107 54 207 122 232 158 12 17 40 49 61 70 93 93 130 256 93 415
-19 80 -42 124 -105 203 -27 34 -50 66 -50 71 0 5 -20 31 -45 57 l-46 49 94 7
c52 4 122 4 156 0 50 -6 61 -4 61 7 0 21 -26 42 -92 72 -32 15 -60 32 -64 37
-3 6 -17 14 -30 19 -14 6 -24 18 -24 30 0 23 11 25 60 9 40 -12 78 -21 200
-43 47 -8 135 -27 195 -41 173 -41 450 -45 462 -8 3 8 -41 34 -109 66 -62 30
-134 70 -161 90 -26 21 -51 37 -56 37 -5 0 -18 11 -29 25 -11 14 -25 25 -32
25 -6 0 -10 6 -7 13 5 15 73 12 142 -7 28 -8 82 -17 120 -20 39 -4 194 -27
347 -51 165 -27 309 -45 358 -45 77 0 81 1 78 21 -2 16 -21 28 -81 49 -42 16
-104 46 -137 67 -73 46 -236 168 -245 184 -15 24 13 27 80 8 53 -15 125 -22
300 -30 127 -5 269 -12 317 -15 138 -10 473 38 508 72 20 20 7 28 -80 49 -41
10 -100 29 -130 43 -30 14 -77 33 -105 42 -31 11 -51 24 -53 35 -3 15 1 17 30
12 99 -17 279 -18 408 -2 74 9 196 20 271 25 118 7 149 12 250 46 146 50 152
69 26 93 -77 14 -282 102 -282 121 0 11 26 18 105 27 58 6 130 19 160 27 211
59 342 102 399 130 36 19 94 44 129 56 46 17 62 28 62 41 0 11 -4 19 -8 19
-41 0 -225 40 -342 75 -80 24 -236 66 -348 95 -258 64 -389 108 -527 175 -60
29 -149 71 -197 94 -49 23 -88 45 -88 49 0 12 57 52 75 52 8 0 15 4 15 9 0 5
2 16 5 24 5 11 -16 15 -117 21 -133 7 -272 29 -291 44 -7 6 -30 13 -52 17 -22
4 -76 22 -120 40 -44 19 -98 37 -120 41 -22 4 -52 15 -67 25 -14 11 -31 19
-38 19 -6 0 -28 9 -48 19 -56 29 -112 50 -157 57 -22 4 -54 17 -72 30 -17 13
-38 24 -47 24 -8 0 -18 5 -21 10 -4 6 -24 19 -46 30 -52 27 -51 50 6 91 85 61
45 88 -125 87 -156 -1 -348 43 -612 141 -243 89 -607 131 -800 92 -84 -16 -94
-27 -80 -84 17 -67 23 -222 12 -350 -11 -129 -41 -238 -87 -310 -15 -23 -26
-52 -25 -64 1 -14 -4 -23 -12 -23 -8 0 -39 -35 -69 -77 -30 -43 -76 -96 -102
-118 -26 -22 -74 -63 -106 -91 -32 -28 -73 -54 -90 -58 -17 -3 -49 -19 -72
-35 -23 -17 -58 -33 -78 -36 -61 -11 -63 -5 -57 264 4 159 2 243 -5 250 -12
12 8 41 30 41 23 0 73 59 73 86 0 14 -7 38 -15 54 -19 36 -7 67 38 95 23 14
46 49 82 119 46 94 49 104 53 192 5 111 -16 193 -75 293 -46 78 -111 131 -223
185 -81 38 -90 40 -190 43 -84 2 -116 -1 -157 -17z m220 -67 c50 -25 87 -55
87 -70 0 -19 -5 -17 -68 23 -65 42 -124 54 -150 32 -25 -22 -79 -47 -118 -54
-26 -5 -35 -2 -40 11 -8 19 8 32 46 40 14 3 43 12 65 20 56 19 139 18 178 -2z
m-22 -48 c24 -9 49 -21 54 -28 6 -6 22 -18 36 -26 15 -7 33 -25 40 -40 24 -45
66 -70 54 -31 -8 26 9 26 47 -1 40 -29 54 -67 31 -84 -14 -11 -15 -16 -4 -43
8 -20 11 -64 8 -135 -4 -100 -6 -107 -42 -166 -37 -59 -70 -90 -82 -77 -9 9
12 50 47 89 33 38 50 100 31 111 -7 5 -11 -2 -11 -19 0 -14 -9 -33 -21 -43
-11 -9 -30 -35 -41 -57 -12 -22 -28 -45 -37 -52 -9 -6 -16 -26 -16 -45 0 -31
-3 -34 -58 -53 -57 -20 -59 -20 -72 -1 -17 22 -48 15 -38 -10 10 -26 -17 -35
-92 -28 -83 8 -135 27 -135 50 0 16 11 16 54 -1 14 -6 18 -4 14 6 -3 9 -22 15
-52 17 -39 3 -49 7 -58 28 -11 24 -65 64 -86 64 -5 0 -12 -10 -16 -22 -12 -44
-23 1 -24 97 -1 62 2 95 9 95 6 0 13 -9 16 -20 5 -20 18 -26 26 -12 3 4 1 30
-3 57 -6 41 12 210 24 222 1 1 14 -4 29 -12 32 -16 46 -2 23 24 -37 41 -1 144
39 111 22 -18 101 -8 160 22 60 30 89 33 146 13z m1300 -332 c7 -7 -1 -12 -22
-17 -18 -3 -35 -2 -38 3 -3 4 -17 12 -30 16 -16 5 -20 10 -12 15 15 9 89 -4
102 -17z m148 3 c6 -8 26 -16 44 -19 69 -12 125 -27 182 -51 33 -13 78 -27
100 -31 55 -10 74 -22 85 -51 8 -20 16 -24 50 -24 23 0 64 -10 91 -21 44 -19
61 -21 139 -15 l90 7 0 -25 c0 -23 -44 -66 -68 -66 -5 0 -16 -7 -23 -16 -10
-12 -24 -15 -56 -10 -24 3 -51 1 -61 -4 -9 -5 -66 -25 -125 -45 -84 -27 -113
-32 -128 -24 -11 5 -54 15 -97 20 -150 20 -177 25 -199 37 -39 21 -61 14 -88
-28 -24 -39 -26 -40 -48 -25 -28 18 -37 11 -37 -26 0 -18 -17 -49 -51 -91 -28
-35 -64 -90 -80 -124 -24 -49 -39 -66 -83 -93 -29 -17 -69 -34 -88 -37 -31 -5
-35 -10 -35 -36 0 -20 -10 -40 -31 -61 -73 -75 -168 -170 -182 -181 -8 -7 -48
-47 -88 -89 -40 -43 -77 -77 -82 -77 -18 0 -10 29 9 35 28 9 46 34 34 46 -11
11 -39 -2 -120 -54 -24 -15 -51 -27 -62 -27 -11 0 -23 -5 -26 -10 -4 -6 -26
-20 -50 -31 -24 -11 -46 -27 -49 -34 -3 -8 -24 -24 -48 -36 -24 -12 -46 -26
-49 -32 -4 -5 -12 -6 -18 -3 -15 10 -11 93 5 107 12 10 59 29 182 73 34 13 73
32 85 44 13 12 27 22 31 22 4 0 12 4 19 10 108 87 142 118 200 182 37 42 67
79 67 83 0 4 12 18 26 32 17 16 25 32 23 51 -1 15 7 42 18 61 33 52 109 231
122 283 8 37 8 54 -3 80 -17 40 -6 140 18 163 8 9 13 22 10 30 -9 23 16 84 44
110 32 30 37 30 87 5 22 -11 56 -20 77 -20 20 0 40 -4 43 -10 3 -5 24 -14 46
-20 22 -6 48 -14 57 -17 12 -4 10 1 -7 20 -30 33 -20 47 17 25 30 -18 64 -10
40 9 -7 6 -23 14 -36 17 -12 4 -20 12 -17 17 9 14 81 11 94 -5z m-1119 -38
c-1 -39 -2 -41 -15 -25 -10 15 -11 25 -3 43 15 33 18 30 18 -18z m-1465 -45
c-6 -73 12 -234 30 -263 12 -20 25 2 25 43 0 63 16 32 29 -58 7 -44 16 -100
20 -125 8 -50 43 -134 60 -144 6 -4 11 -22 11 -40 0 -62 48 -144 159 -272 20
-23 47 -60 61 -83 15 -27 31 -41 45 -41 12 0 46 -28 88 -74 65 -71 69 -74 105
-69 27 4 42 1 51 -11 7 -9 26 -16 41 -16 33 0 55 -24 63 -67 7 -38 -4 -42 -49
-18 -16 8 -37 15 -47 15 -9 0 -23 11 -29 25 -8 18 -19 25 -39 25 -15 0 -32 6
-36 13 -21 32 -86 78 -104 72 -29 -10 -106 41 -134 89 -13 22 -49 60 -80 83
-30 24 -55 48 -55 54 0 6 -16 30 -35 53 -19 24 -35 48 -35 53 0 6 -9 22 -20
36 -20 25 -26 26 -110 26 -68 0 -100 5 -135 20 -56 25 -161 123 -167 156 -10
51 8 42 122 -54 90 -76 107 -84 141 -67 38 19 36 38 -3 31 -32 -6 -43 0 -134
68 -117 87 -163 130 -186 174 -35 66 -133 94 -206 57 -18 -9 -41 -13 -53 -9
-11 4 -33 2 -47 -4 -41 -16 -222 -19 -222 -4 0 13 -13 17 -85 28 -44 7 -143
41 -161 56 -6 5 -15 5 -20 1 -5 -4 -6 -3 -2 2 10 12 -10 36 -30 36 -13 0 -13
-2 1 -18 46 -51 -1 -48 -57 4 -20 19 -41 34 -46 34 -9 0 -40 51 -40 65 0 14
61 2 91 -18 38 -25 105 -27 124 -3 10 13 53 26 95 29 19 2 26 -3 28 -20 5 -32
24 -29 83 12 28 19 57 35 64 35 7 0 27 14 45 30 26 25 41 30 80 30 28 0 54 6
62 14 47 46 354 88 497 67 74 -11 86 -10 100 3 8 9 24 16 34 16 18 0 19 -6 12
-77z m55 -69 c0 -41 -4 -63 -10 -59 -5 3 -10 33 -10 66 0 33 4 59 10 59 6 0
10 -29 10 -66z m-1338 -187 c15 -11 28 -28 28 -37 0 -31 -111 -113 -235 -173
-32 -15 -84 -45 -115 -66 -31 -21 -66 -41 -78 -45 -12 -4 -22 -12 -22 -17 0
-5 -9 -9 -21 -9 -11 0 -51 -13 -87 -29 -37 -16 -86 -35 -110 -42 -49 -14 -65
-29 -52 -49 7 -11 15 -12 52 -1 24 7 64 24 90 37 26 13 56 24 67 24 11 0 33
11 49 25 17 14 39 25 50 25 10 0 32 10 47 22 15 12 67 43 114 68 169 92 221
124 262 162 22 21 43 38 46 38 4 0 27 -13 52 -29 25 -16 65 -32 89 -36 38 -6
60 -25 30 -25 -25 0 -117 -49 -139 -74 -28 -32 -76 -53 -91 -38 -7 7 -1 15 20
26 58 30 112 86 84 86 -5 0 -36 -21 -69 -47 -33 -27 -75 -56 -92 -65 -28 -15
-31 -20 -21 -38 12 -23 -1 -50 -25 -50 -15 0 -109 -42 -127 -58 -38 -31 -172
-93 -192 -88 -11 3 -86 -9 -166 -26 -227 -47 -426 -41 -617 19 -29 10 -53 22
-53 28 0 15 122 55 170 55 26 0 51 8 69 21 19 14 53 24 97 29 97 11 203 56
220 93 6 13 28 26 59 35 28 7 57 19 65 26 30 25 226 112 280 124 32 7 82 40
140 91 50 45 79 47 132 8z m4808 -6 c0 -29 26 -44 66 -39 30 3 54 -4 117 -39
44 -24 84 -43 87 -43 4 0 57 -24 117 -54 111 -55 204 -94 278 -116 22 -7 45
-15 50 -19 6 -3 15 -6 20 -7 65 -11 225 -64 225 -75 0 -13 -77 -45 -130 -54
-25 -4 -63 -16 -84 -27 -36 -18 -54 -20 -180 -15 -82 2 -170 12 -211 22 -238
58 -267 68 -480 170 -103 49 -185 85 -193 85 -4 0 -15 13 -25 29 -22 37 -13
45 84 71 123 34 119 34 119 17 0 -9 9 -15 23 -15 33 1 147 -45 224 -90 37 -22
97 -50 133 -63 36 -12 76 -31 89 -41 13 -10 29 -18 37 -18 7 0 25 -6 41 -14
77 -39 110 -48 132 -37 11 7 21 16 21 21 0 15 -36 30 -69 30 -17 0 -52 11 -79
24 -26 14 -67 33 -92 44 -130 57 -218 101 -224 110 -3 6 -32 18 -64 27 -31 9
-67 23 -79 31 -42 27 -22 104 28 104 12 0 19 -7 19 -19z m-2345 -71 c-3 -5
-13 -10 -21 -10 -8 0 -14 5 -14 10 0 6 9 10 21 10 11 0 17 -4 14 -10z m1315
-50 c0 -11 -7 -20 -15 -20 -8 0 -15 9 -15 20 0 11 7 20 15 20 8 0 15 -9 15
-20z m236 -54 c27 -26 76 -64 109 -84 33 -19 101 -61 151 -93 49 -31 128 -76
174 -99 46 -22 99 -50 116 -61 18 -11 77 -39 132 -63 73 -32 103 -41 111 -33
28 28 2 56 -65 68 -25 5 -57 18 -71 29 -14 11 -34 20 -44 20 -10 0 -20 4 -23
9 -7 10 -100 56 -143 70 -18 5 -60 28 -93 51 -34 23 -78 49 -98 58 -61 28 -92
53 -92 74 0 28 10 24 193 -69 29 -15 66 -26 84 -24 25 1 36 -5 53 -29 31 -44
54 -53 155 -60 67 -6 103 -14 140 -33 28 -14 104 -41 170 -62 302 -92 361
-113 351 -122 -8 -8 -130 -49 -204 -68 -79 -21 -459 -22 -475 -2 -7 8 -34 17
-61 21 -27 3 -64 15 -82 25 -17 10 -47 22 -65 26 -19 4 -39 11 -44 16 -25 19
-188 99 -222 108 -21 6 -54 26 -73 44 -19 19 -62 51 -94 73 -111 73 -123 83
-130 100 -4 10 -2 22 4 28 5 5 10 19 10 29 0 15 5 18 23 13 44 -14 107 -19
107 -9 0 6 -24 19 -52 30 -53 20 -68 42 -54 78 7 20 43 0 102 -59z m-1627 27
c36 -10 55 -21 58 -34 3 -10 10 -16 15 -13 5 3 7 13 4 21 -15 39 63 61 90 26
13 -17 14 -17 20 5 7 24 44 31 44 9 0 -22 -60 -99 -73 -94 -7 2 -13 16 -15 30
-5 37 -14 34 -34 -13 l-17 -40 -93 0 c-144 0 -198 30 -190 102 3 27 3 27 70
21 37 -3 91 -12 121 -20z m-1534 -17 c0 -22 -14 -29 -34 -17 -19 12 -6 43 16
39 10 -2 18 -12 18 -22z m3287 11 c33 -12 36 -16 25 -29 -19 -25 -52 -27 -52
-3 0 14 -8 21 -24 23 -19 3 -21 6 -10 13 18 11 17 11 61 -4z m162 -43 c16 -10
36 -24 45 -29 77 -48 89 -65 47 -65 -15 0 -34 12 -49 29 -14 17 -28 27 -31 24
-3 -4 -19 5 -34 18 -15 14 -40 33 -56 43 -21 13 -25 20 -16 26 8 5 24 1 39 -9
14 -10 39 -27 55 -37z m-3511 9 c26 -24 21 -55 -14 -86 -36 -32 -32 -48 5 -23
65 42 61 -1 -4 -48 l-50 -36 0 25 c0 14 -4 25 -8 25 -5 0 -46 -36 -92 -80 -82
-78 -159 -130 -211 -143 -15 -4 -49 -23 -77 -42 -29 -19 -63 -35 -76 -35 -14
0 -41 -9 -60 -21 -26 -15 -56 -21 -113 -23 -43 -2 -105 -11 -138 -20 -116 -34
-275 -54 -338 -44 -32 5 -73 8 -90 7 -18 -2 -51 -2 -75 -1 -36 2 -43 5 -40 20
2 12 13 17 38 18 50 1 77 12 98 38 10 13 29 27 42 31 23 7 179 75 189 82 2 1
-1 9 -8 17 -9 11 -5 15 26 21 49 9 116 47 137 79 22 34 72 59 93 48 14 -8 12
-12 -15 -26 -36 -19 -50 -36 -28 -36 8 0 31 14 49 30 19 17 37 30 40 30 4 0
48 32 99 71 115 88 154 106 238 108 36 0 90 4 120 7 50 6 54 6 41 -10 -7 -9
-19 -16 -26 -16 -8 0 -82 -42 -167 -93 -84 -51 -218 -123 -298 -161 -152 -71
-177 -87 -166 -105 14 -21 52 -10 141 40 50 28 142 76 205 108 63 32 170 94
237 139 67 44 132 83 145 87 13 4 30 13 38 20 34 28 80 27 113 -2z m2917 1 c0
-21 -71 -113 -88 -114 -15 0 -11 9 24 57 13 17 24 36 24 40 0 11 21 33 32 33
4 0 8 -7 8 -16z m-1340 -104 c71 0 89 -3 94 -16 10 -25 7 -102 -4 -109 -6 -4
-10 6 -10 24 0 16 -4 32 -9 35 -14 9 -21 -20 -15 -57 10 -59 35 -162 46 -190
8 -21 8 -38 -1 -65 -11 -33 -10 -43 10 -87 20 -46 21 -54 9 -112 -7 -35 -10
-70 -6 -78 3 -8 1 -71 -4 -139 -6 -93 -5 -138 4 -173 8 -30 11 -86 8 -148 -2
-55 -4 -117 -4 -137 0 -21 1 -51 1 -68 0 -16 0 -45 0 -62 9 -447 9 -447 -10
-464 -23 -21 -26 -79 -4 -88 13 -5 12 -10 -5 -38 -23 -37 -26 -79 -8 -111 18
-35 20 -55 21 -368 2 -238 -1 -299 -12 -312 -15 -19 -67 -22 -123 -7 l-36 10
-7 73 c-3 39 -8 130 -11 200 -4 107 -2 133 11 153 12 19 13 29 4 46 -6 11 -9
39 -6 61 3 24 0 51 -7 66 -11 21 -12 94 -6 360 4 183 5 344 2 357 -2 13 0 24
6 24 18 0 21 27 5 56 -8 16 -15 47 -14 69 1 22 1 60 0 85 0 25 -1 106 -2 180
-1 74 -6 140 -10 147 -12 19 -25 344 -20 518 5 151 -8 310 -28 348 -15 26 -3
38 27 27 14 -6 65 -10 114 -10z m-1390 -11 c0 -5 -7 -9 -15 -9 -15 0 -20 12
-9 23 8 8 24 -1 24 -14z m-39 -89 c7 -22 10 -42 8 -43 -32 -26 -115 -75 -198
-117 -57 -28 -120 -62 -140 -76 -20 -13 -59 -31 -86 -39 -61 -18 -101 -47 -90
-65 11 -18 59 -5 109 30 24 16 68 39 97 50 29 12 71 35 93 51 22 16 47 29 56
29 8 0 36 15 61 33 109 77 184 94 210 45 10 -18 8 -24 -11 -38 -15 -11 -19
-20 -12 -24 13 -8 43 6 62 28 14 18 50 22 50 6 0 -13 -101 -87 -205 -150 -45
-27 -88 -57 -95 -65 -7 -8 -27 -15 -44 -15 -18 0 -49 -9 -70 -19 -21 -11 -52
-23 -69 -27 -18 -3 -41 -13 -52 -20 -11 -8 -27 -14 -36 -14 -9 0 -29 -6 -45
-14 -16 -7 -76 -16 -133 -19 -56 -4 -108 -11 -115 -16 -6 -5 -49 -11 -96 -14
-47 -2 -94 -6 -105 -8 -14 -3 -24 5 -35 29 l-16 33 -11 -24 c-8 -16 -22 -26
-43 -29 -42 -6 -80 1 -80 16 0 13 60 64 104 88 28 15 33 15 58 0 26 -15 30
-14 110 25 46 23 108 51 138 63 114 46 209 94 320 163 63 40 117 75 118 79 2
5 7 8 12 8 32 0 114 53 118 76 7 41 11 45 31 34 11 -6 26 -28 32 -50z m1598
-130 c1 -144 -2 -170 -14 -170 -10 0 -15 11 -16 33 0 17 -2 50 -5 72 -2 22 -3
51 -3 65 0 14 0 52 0 85 -1 70 3 85 23 85 12 0 15 -28 15 -170z m1106 161 c7
-12 -65 -62 -77 -55 -16 10 -8 24 25 44 36 23 43 24 52 11z m220 -59 c60 -34
151 -89 185 -112 14 -9 41 -25 60 -35 19 -9 44 -25 55 -35 11 -10 45 -21 75
-25 35 -4 81 -21 125 -45 106 -57 203 -105 275 -135 146 -60 154 -67 118 -86
-23 -12 -191 -51 -303 -70 -76 -13 -247 4 -328 32 -31 11 -96 38 -143 60 -66
30 -89 37 -100 29 -7 -7 -23 -9 -34 -5 -17 5 -21 13 -17 31 3 20 -2 28 -27 41
-35 18 -131 107 -187 174 l-39 47 44 26 c24 14 46 32 50 41 9 26 28 17 99 -45
38 -33 86 -69 106 -80 21 -10 112 -64 203 -118 176 -106 225 -129 252 -119 32
12 14 42 -29 48 -24 3 -77 29 -135 66 -52 33 -142 84 -200 114 -120 62 -230
159 -230 204 0 22 4 25 38 25 22 0 57 -12 87 -28z m-2805 -17 c0 -8 -4 -15 -9
-15 -13 0 -22 16 -14 24 11 11 23 6 23 -9z m4841 -35 c10 -6 25 -26 33 -45 8
-18 25 -39 38 -46 12 -6 61 -40 108 -74 106 -78 129 -90 142 -77 7 7 -5 18
-38 35 -27 14 -58 35 -69 47 l-20 23 28 -7 c15 -4 78 -31 140 -60 62 -30 138
-62 171 -71 32 -9 79 -27 105 -40 76 -38 143 -65 150 -60 10 6 83 -20 144 -52
48 -25 63 -27 179 -28 104 -2 132 -5 155 -20 15 -10 40 -21 56 -24 45 -9 37
-24 -34 -59 -47 -24 -109 -42 -215 -63 -200 -40 -348 -53 -539 -46 -151 5
-169 8 -320 51 -274 77 -338 104 -313 133 17 21 -6 33 -65 33 -48 0 -82 18
-344 177 -31 18 -29 32 5 39 38 8 106 56 111 79 2 10 -5 25 -15 32 -27 20 -4
35 60 41 54 4 56 3 113 -46 86 -74 480 -273 665 -337 69 -23 88 -20 88 16 0
20 -20 29 -65 29 -31 0 -378 163 -480 225 -48 30 -53 32 -87 39 -38 8 -113 69
-113 91 0 14 12 22 50 31 28 7 73 20 100 28 28 8 51 15 53 15 2 1 12 -4 23 -9z
m-4633 -87 c3 -20 -36 -68 -72 -88 -11 -6 -17 -17 -15 -24 7 -19 107 63 115
94 3 14 9 25 14 25 9 0 31 -27 52 -66 17 -30 17 -32 0 -47 -10 -9 -35 -24 -57
-34 -22 -10 -62 -31 -89 -48 -27 -16 -113 -57 -190 -91 -135 -60 -169 -86
-132 -100 9 -3 37 5 63 18 27 14 80 37 120 52 39 15 104 51 144 79 93 67 113
78 160 84 52 7 79 -1 118 -36 37 -33 36 -56 -3 -70 -13 -6 -35 -21 -49 -35
-17 -17 -37 -26 -58 -26 -21 0 -44 -11 -70 -32 -64 -55 -95 -77 -125 -88 -16
-6 -51 -21 -79 -34 -27 -13 -71 -29 -98 -36 -26 -7 -50 -17 -53 -21 -3 -5 -26
-9 -51 -9 -32 0 -53 -6 -67 -19 -25 -24 -127 -30 -225 -13 -87 15 -102 32 -28
32 44 0 57 3 57 15 0 12 -14 15 -64 15 -35 0 -80 -7 -99 -15 -20 -8 -48 -15
-62 -15 -22 0 -26 4 -23 22 2 16 15 27 48 38 58 21 151 85 168 115 9 19 26 27
72 36 33 6 63 16 66 20 3 5 18 9 33 9 16 0 34 7 41 15 6 8 21 17 32 21 11 3
29 15 40 26 13 13 29 18 45 15 22 -4 45 9 55 30 1 5 44 40 93 80 50 39 103 85
120 102 32 34 48 35 53 4z m-2408 -25 c88 -25 100 -33 80 -53 -8 -8 -98 -52
-200 -98 -102 -47 -210 -96 -240 -110 -67 -30 -145 -57 -167 -57 -9 0 -40 -8
-70 -17 -36 -12 -53 -23 -53 -35 0 -21 33 -32 57 -18 38 22 116 50 138 50 20
0 110 35 159 62 11 6 51 21 90 34 39 14 139 61 221 106 138 75 156 81 230 89
99 11 161 4 144 -17 -7 -9 -31 -14 -65 -14 -48 0 -54 -2 -54 -20 0 -11 8 -23
18 -26 49 -15 123 -56 120 -66 -5 -15 -72 -51 -156 -85 -35 -14 -77 -37 -93
-50 -16 -14 -34 -21 -40 -17 -9 5 -7 11 6 20 10 8 16 16 13 20 -4 3 -58 -22
-121 -55 -62 -34 -140 -70 -172 -81 -32 -11 -63 -24 -69 -29 -6 -5 -36 -12
-66 -15 -30 -4 -88 -14 -129 -23 -57 -12 -97 -14 -180 -8 -58 5 -155 9 -216
10 -86 2 -122 7 -168 24 -34 14 -74 22 -100 20 -66 -4 -87 0 -87 15 0 7 -9 16
-20 19 -57 15 14 48 100 46 49 -1 65 2 72 15 5 10 22 16 42 16 18 0 60 9 94
20 47 16 67 18 88 10 22 -9 33 -7 63 13 20 13 63 39 96 57 33 18 76 45 95 60
19 15 62 35 95 45 84 24 190 75 255 123 65 48 86 50 190 20z m723 -19 c-19
-19 -144 -66 -195 -73 -31 -5 -49 -3 -54 5 -11 18 36 48 76 49 19 1 49 7 65
15 38 17 124 20 108 4z m3860 -10 c12 -7 43 -31 69 -55 26 -24 51 -44 56 -44
5 0 21 -17 34 -38 24 -36 44 -48 168 -98 25 -10 51 -26 58 -35 6 -10 26 -20
43 -24 17 -4 70 -34 119 -66 48 -32 95 -59 104 -59 8 0 30 -6 48 -14 18 -8 75
-28 127 -44 l95 -30 -55 -16 c-81 -24 -200 -37 -332 -36 -124 0 -182 10 -232
40 -16 10 -61 30 -100 46 -88 34 -115 54 -259 189 -95 90 -116 114 -111 132 3
12 0 23 -6 25 -13 4 27 58 43 58 7 0 43 -26 82 -58 39 -32 88 -68 108 -80 20
-13 40 -31 43 -41 3 -10 32 -33 66 -52 33 -19 85 -49 116 -66 48 -29 93 -42
93 -29 0 2 3 11 6 19 4 11 -13 22 -65 42 -38 15 -90 44 -115 64 -51 40 -113
81 -125 81 -4 0 -13 11 -21 24 -7 13 -39 43 -71 66 -69 51 -78 68 -49 92 26
21 34 22 63 7z m1857 -163 c30 -19 66 -43 80 -54 50 -38 277 -169 352 -202 71
-32 94 -53 68 -62 -6 -2 12 -20 39 -40 38 -29 66 -40 127 -52 44 -8 96 -22
116 -30 20 -9 61 -16 90 -17 29 0 108 -1 175 -2 112 -2 120 -3 112 -19 -8 -15
-5 -18 15 -18 14 0 29 6 33 14 7 12 22 8 85 -24 42 -21 90 -41 107 -45 17 -3
33 -11 36 -16 4 -5 14 -9 24 -9 9 0 26 -6 37 -14 29 -22 8 -34 -81 -46 -44 -6
-105 -19 -135 -28 -45 -13 -104 -16 -322 -17 -262 0 -267 0 -297 23 -27 20
-36 22 -69 12 -49 -13 -118 -13 -144 1 -11 6 -33 12 -47 14 -95 9 -329 83
-352 111 -6 8 -18 14 -27 14 -29 0 -202 92 -226 121 -14 16 -63 49 -110 73
-102 53 -178 104 -171 115 2 5 28 16 57 26 29 9 72 28 96 42 52 31 44 46 -25
48 -26 1 -72 7 -100 14 -41 10 -53 17 -53 32 0 17 8 19 105 19 76 0 106 -4
112 -13 12 -20 306 -209 393 -252 41 -20 131 -68 200 -105 69 -38 139 -72 155
-76 17 -4 47 -15 67 -25 46 -23 64 -24 72 -2 10 24 -2 31 -115 69 -57 19 -129
50 -159 68 -30 19 -100 56 -155 83 -55 28 -158 88 -230 135 -71 47 -145 93
-164 103 l-35 17 26 14 c14 8 48 13 74 12 30 -2 49 2 52 10 7 22 57 12 112
-22z m-5802 -41 c35 -6 42 -11 42 -30 0 -19 -7 -24 -41 -29 -23 -4 -61 -20
-85 -37 -25 -17 -70 -39 -101 -50 -31 -10 -90 -37 -130 -59 -40 -23 -99 -49
-131 -60 -171 -56 -216 -80 -194 -102 15 -15 124 18 222 67 36 18 76 36 90 40
48 14 352 169 357 182 3 7 12 13 21 13 9 0 32 11 51 24 29 19 52 25 111 28 61
2 75 0 75 -12 0 -9 -15 -17 -43 -22 -50 -8 -62 -15 -62 -33 0 -15 43 -31 110
-41 88 -13 86 -42 -7 -92 -32 -18 -80 -45 -108 -62 -88 -52 -195 -104 -201
-97 -12 11 6 25 81 61 72 35 114 74 100 96 -9 15 -35 12 -35 -4 0 -22 -56 -64
-137 -104 -40 -20 -73 -40 -73 -44 0 -4 12 -8 28 -8 26 -1 26 -1 8 -15 -11 -8
-27 -15 -37 -15 -9 0 -19 -6 -22 -14 -3 -7 -27 -18 -54 -25 -83 -20 -193 -55
-193 -62 0 -9 -71 -2 -104 11 -15 5 -33 7 -39 3 -35 -21 -465 -61 -503 -46 -8
3 -21 0 -29 -7 -21 -17 -111 -15 -175 4 -30 9 -69 16 -87 16 -36 0 -47 26 -15
37 9 4 28 17 41 30 13 13 43 32 65 43 23 11 49 25 58 32 13 10 22 9 41 -1 38
-20 118 -7 267 44 74 25 139 51 144 56 6 5 27 9 47 9 30 0 46 8 80 41 24 23
61 50 84 61 22 10 57 28 77 39 65 34 104 16 43 -20 -51 -30 -43 -45 9 -19 25
13 55 39 68 58 13 19 33 36 43 38 11 2 47 23 80 48 63 46 60 46 163 29z m3702
-50 c7 -8 25 -15 41 -15 15 0 31 -4 34 -10 16 -26 171 -140 190 -140 24 0 52
-25 38 -33 -13 -8 -93 4 -93 14 0 12 -91 71 -99 64 -3 -4 2 -11 11 -16 9 -5
23 -15 30 -22 62 -59 139 -96 184 -90 25 4 34 0 47 -21 14 -21 25 -26 55 -24
41 1 102 -25 102 -45 0 -13 33 -49 65 -71 17 -12 18 -16 5 -31 -13 -16 -33
-17 -191 -13 -111 2 -182 8 -191 15 -7 6 -36 17 -63 23 -135 33 -235 75 -319
133 -34 24 -73 48 -88 54 -15 7 -34 24 -44 38 -9 14 -23 25 -30 25 -8 0 -14 8
-14 19 0 22 50 46 78 37 11 -4 23 -2 27 4 14 23 53 7 107 -43 115 -104 136
-119 199 -148 74 -33 97 -36 106 -13 8 23 -18 40 -72 48 -24 4 -60 20 -82 36
-105 79 -139 108 -152 132 -14 24 -14 28 4 49 23 25 75 59 91 59 6 0 17 -7 24
-15z m-1497 -18 c17 -12 9 -19 -85 -79 -57 -36 -131 -80 -165 -97 -46 -23 -63
-37 -63 -51 0 -29 37 -26 92 9 25 16 48 33 52 39 11 18 142 92 164 92 13 0 22
6 22 15 0 8 10 20 22 26 18 10 24 8 38 -9 9 -11 33 -27 53 -36 21 -8 37 -22
37 -31 0 -18 -51 -51 -92 -60 -15 -4 -42 -20 -59 -36 -17 -16 -39 -29 -48 -29
-9 0 -26 -6 -37 -14 -27 -19 -126 -57 -238 -92 -80 -24 -94 -26 -133 -16 -25
7 -49 9 -55 6 -6 -4 -40 -6 -76 -5 -36 1 -103 -4 -149 -10 -65 -8 -87 -8 -98
1 -23 19 -19 27 28 49 24 12 56 35 70 51 23 25 30 28 52 20 21 -8 35 -4 78 19
29 16 80 37 115 46 35 9 90 30 123 47 50 26 59 35 59 58 0 18 8 31 23 39 12 6
36 22 54 35 27 20 45 24 115 25 56 1 89 -3 101 -12z m5252 1 c30 -14 33 -28 4
-28 -28 0 -61 19 -54 31 8 12 19 11 50 -3z m-6465 -56 c0 -10 -12 -23 -27 -30
-16 -6 -57 -28 -93 -47 -35 -20 -89 -43 -120 -51 -30 -9 -59 -20 -64 -24 -11
-11 52 -50 82 -50 27 0 62 -17 62 -30 0 -5 -9 -12 -21 -15 -12 -4 -38 -21 -58
-39 -77 -68 -348 -226 -388 -226 -23 0 -127 -50 -146 -70 -11 -13 -31 -20 -53
-20 -19 0 -51 -8 -72 -19 -20 -10 -61 -19 -89 -20 -29 -1 -64 -6 -79 -11 -60
-23 -364 -59 -533 -64 -67 -1 -76 15 -24 44 79 43 139 83 183 123 28 25 65 47
91 54 24 6 87 32 139 56 52 25 115 50 139 57 25 6 63 26 85 44 23 18 79 51
126 74 47 23 121 63 165 88 45 27 93 48 110 48 23 1 31 6 33 23 2 13 19 32 40
45 30 18 52 23 124 24 87 1 88 0 71 -19 -50 -55 -374 -264 -490 -317 -29 -13
-60 -32 -70 -42 -9 -10 -28 -18 -42 -18 -29 0 -174 -64 -179 -78 -1 -5 4 -15
13 -22 13 -11 24 -9 70 14 29 14 59 26 66 26 7 0 22 9 33 19 12 10 49 30 84
44 34 14 88 41 120 62 94 61 163 102 232 138 77 41 170 109 225 166 21 23 47
41 58 41 10 0 27 4 37 10 17 9 101 26 143 29 10 1 17 -6 17 -17z m1714 -38 c8
-20 -30 -46 -61 -42 -24 2 -27 7 -24 28 1 14 7 33 13 43 9 17 10 17 38 0 16
-9 31 -22 34 -29z m2496 -39 c13 -14 42 -30 64 -36 23 -6 66 -27 95 -47 30
-20 84 -51 120 -70 37 -19 86 -49 111 -67 71 -51 277 -160 370 -195 47 -18
106 -41 131 -51 25 -10 77 -23 115 -29 93 -14 154 -35 244 -81 41 -21 94 -44
118 -49 83 -21 39 -40 -133 -59 -78 -9 -209 -10 -244 -2 -3 1 3 7 13 14 16 12
16 14 2 26 -10 8 -26 11 -43 6 -26 -6 -26 -8 -10 -19 9 -7 17 -16 17 -20 0
-11 -66 -6 -78 7 -8 7 -41 12 -80 13 -37 0 -74 3 -82 7 -14 5 -141 18 -184 18
-11 0 -41 10 -66 23 -31 16 -70 25 -122 28 -68 4 -90 11 -190 60 -62 31 -131
62 -153 68 -59 19 -115 48 -161 86 -23 18 -45 30 -49 26 -3 -4 -12 0 -18 9 -7
9 -26 23 -43 32 -17 9 -37 30 -44 47 -7 16 -18 31 -24 31 -6 1 -18 2 -26 3 -8
0 -15 8 -15 16 0 11 22 19 75 30 87 18 100 24 100 51 0 22 -31 38 -127 65 -51
14 -61 20 -52 31 7 8 34 13 74 13 54 0 66 -4 91 -27 32 -30 125 -93 176 -119
18 -9 56 -34 84 -55 88 -68 446 -299 471 -306 24 -6 46 11 40 30 -1 5 -34 21
-72 36 -39 15 -104 53 -145 84 -41 31 -101 71 -134 88 -34 18 -80 50 -104 71
-24 22 -58 46 -75 54 -18 8 -68 40 -112 72 -88 64 -102 92 -50 103 66 14 101
10 125 -16z m-2712 -63 c-2 -9 -33 -33 -70 -52 -68 -35 -79 -48 -55 -68 17
-15 111 28 127 57 6 12 17 21 24 21 8 0 19 7 27 16 10 12 23 14 63 9 61 -9 89
-21 66 -29 -8 -3 -26 -6 -40 -8 -20 -2 -25 -9 -25 -32 -1 -35 -35 -62 -142
-112 -40 -19 -75 -39 -78 -44 -3 -6 -17 -10 -31 -10 -14 0 -35 -5 -47 -11 -11
-7 -50 -16 -86 -20 -36 -5 -95 -13 -131 -19 -142 -21 -179 -23 -195 -10 -13
11 -7 19 44 56 73 53 105 63 119 38 10 -18 12 -18 46 -1 20 9 36 22 36 29 0 7
23 24 50 36 28 13 65 36 83 51 18 15 46 33 63 40 17 7 50 32 74 56 36 37 46
42 62 34 11 -6 18 -18 16 -27z m908 -16 c33 -25 79 -63 104 -85 39 -35 41 -40
18 -31 -25 9 -28 7 -28 -14 0 -26 14 -34 73 -46 35 -7 38 -6 34 11 -6 22 -4
23 39 7 28 -10 32 -15 28 -38 -5 -21 1 -33 31 -59 38 -33 41 -61 8 -61 -127 2
-352 42 -401 71 -18 10 -42 19 -53 19 -25 0 -102 52 -124 82 -19 28 -20 88 -1
113 13 18 15 18 40 2 14 -10 26 -22 26 -27 0 -5 26 -28 58 -51 31 -23 74 -58
95 -76 27 -24 46 -33 65 -31 41 5 33 30 -20 58 -26 14 -58 36 -71 48 -13 12
-28 22 -33 22 -17 0 -87 78 -80 89 4 6 22 11 39 11 21 0 39 8 50 21 22 25 29
23 103 -35z m3034 -41 c0 -9 -9 -15 -25 -15 -16 0 -25 6 -25 15 0 9 9 15 25
15 16 0 25 -6 25 -15z m-5080 -49 c0 -7 -112 -47 -120 -44 -4 2 -4 13 1 26 7
19 15 22 64 22 30 0 55 -2 55 -4z m-170 -22 c3 -5 -21 -28 -53 -52 -32 -25
-63 -55 -69 -68 -6 -12 -16 -20 -23 -17 -7 2 -31 -11 -52 -29 -21 -19 -56 -45
-78 -58 -22 -13 -62 -42 -90 -65 -27 -23 -61 -45 -75 -49 -60 -17 -101 -40
-98 -55 6 -27 55 -15 129 30 38 23 69 45 69 50 0 5 26 22 58 38 31 16 79 52
106 80 27 27 62 53 77 56 15 4 48 28 74 56 25 27 49 49 53 49 4 0 15 -8 23
-18 9 -10 49 -26 92 -36 43 -10 79 -22 82 -26 2 -4 -4 -15 -15 -25 -17 -15
-26 -17 -56 -7 -32 10 -34 9 -29 -9 5 -14 -2 -27 -25 -47 -18 -15 -48 -43 -68
-62 -21 -19 -68 -55 -105 -79 -55 -35 -77 -44 -117 -45 -33 -1 -59 -9 -79 -24
-16 -11 -42 -24 -57 -28 -16 -3 -47 -14 -69 -24 -140 -62 -349 -124 -555 -165
-143 -28 -227 -32 -256 -10 -18 14 -18 16 21 49 22 19 52 37 67 40 15 3 32 16
39 28 33 64 149 128 230 128 31 0 74 7 95 15 76 30 179 86 214 115 30 25 32
30 15 30 -12 0 -26 -5 -32 -11 -6 -6 -16 -8 -21 -5 -16 10 48 72 87 85 45 15
51 14 51 -5 0 -9 3 -14 8 -12 23 10 82 55 86 66 9 21 -20 13 -42 -13 -12 -14
-29 -25 -37 -25 -33 0 -7 41 50 79 56 37 59 38 53 6 -7 -36 3 -31 46 21 21 25
48 49 59 53 27 10 210 5 217 -5z m1512 -54 c-13 -11 -30 -16 -39 -13 -13 5
-11 10 12 30 21 18 31 21 39 13 8 -8 5 -16 -12 -30z m1773 20 c8 -24 161 -160
180 -160 31 0 12 31 -57 94 l-73 66 85 0 c47 -1 98 0 114 1 35 2 66 -30 66
-68 0 -16 13 -37 37 -59 43 -40 80 -48 45 -11 -29 31 -29 50 1 41 26 -8 47
-23 65 -46 7 -10 20 -18 27 -18 8 0 22 -11 30 -24 17 -26 104 -80 215 -136 36
-18 67 -36 70 -40 5 -6 67 -31 153 -62 57 -20 358 -255 350 -274 -4 -10 -13
-14 -27 -10 -30 7 -317 44 -409 52 -53 4 -80 11 -84 20 -4 10 -25 14 -72 14
-36 1 -84 8 -106 16 -22 8 -49 18 -60 21 -11 3 -34 11 -52 19 -17 8 -43 14
-57 14 -14 0 -35 9 -46 20 -11 11 -29 20 -39 20 -11 0 -22 4 -25 9 -3 5 -22
12 -41 15 -40 8 -42 12 -19 38 16 16 15 19 -7 38 -13 11 -34 23 -47 26 -12 3
-27 15 -33 25 -5 11 -36 32 -67 48 -32 16 -65 37 -73 47 -8 9 -30 24 -49 33
-66 30 -130 76 -128 91 2 11 20 16 62 20 70 6 91 26 62 59 -10 11 -28 23 -40
27 -24 7 -56 33 -56 46 0 4 22 8 49 8 40 0 51 -4 56 -20z m-1835 -57 c0 -15
-15 -30 -47 -48 -25 -15 -33 -26 -33 -47 0 -30 -36 -61 -67 -57 -10 1 -35 -5
-55 -15 -41 -18 -66 -20 -85 -8 -9 6 0 20 30 49 45 44 91 66 81 40 -3 -8 0
-18 6 -22 16 -10 41 15 35 35 -4 13 5 24 32 41 53 33 103 48 103 32z m90 -31
c0 -48 -61 -81 -89 -48 -9 11 -5 19 19 40 37 30 70 34 70 8z m-855 -1 c9 -15
-32 -33 -68 -29 l-32 3 30 17 c34 19 61 23 70 9z m2040 -30 c17 -4 31 -14 33
-24 4 -21 94 -117 110 -117 6 0 17 -9 25 -20 8 -12 44 -42 80 -68 36 -26 131
-100 210 -164 143 -117 177 -136 177 -99 0 12 -22 33 -62 60 -35 22 -101 74
-147 116 -98 87 -226 175 -253 175 -11 0 -16 4 -12 11 3 6 -15 33 -41 59 -26
26 -45 52 -42 57 4 6 43 8 89 5 89 -4 118 -17 196 -86 20 -18 58 -45 85 -60
26 -15 55 -38 64 -52 9 -14 41 -42 72 -61 31 -20 65 -45 77 -56 21 -20 124
-79 249 -142 43 -21 107 -68 164 -120 52 -47 124 -104 160 -127 36 -23 68 -43
70 -45 2 -2 2 -5 -1 -8 -10 -10 -273 18 -288 30 -9 8 -23 10 -35 5 -34 -12
-195 13 -195 31 0 5 -9 9 -19 9 -11 0 -23 5 -26 10 -10 16 68 12 103 -6 18 -8
37 -12 43 -9 16 10 1 20 -61 40 -30 10 -78 29 -108 42 -54 24 -112 31 -112 13
0 -5 7 -10 15 -10 16 0 21 -25 6 -34 -12 -8 -310 149 -341 179 -15 14 -33 25
-42 25 -8 0 -21 7 -28 16 -8 8 -28 21 -46 29 -18 7 -55 36 -81 63 -26 28 -67
59 -90 71 -35 17 -43 27 -43 49 0 38 -14 55 -37 48 -24 -8 -79 32 -65 46 5 5
37 12 70 15 51 5 61 9 66 27 7 27 -16 44 -67 53 -42 6 -56 25 -37 48 10 13 17
12 48 -1 21 -9 50 -19 67 -23z m-2216 10 c23 -6 23 -7 7 -24 -9 -9 -16 -22
-14 -30 2 -7 -12 -32 -31 -56 -23 -29 -30 -46 -23 -53 7 -7 23 5 52 36 40 44
72 57 85 37 3 -5 33 -12 68 -15 109 -11 152 -15 155 -15 9 -3 -1 -21 -11 -21
-8 0 -36 -16 -63 -35 -27 -19 -54 -35 -61 -35 -6 0 -25 -12 -41 -27 -40 -38
-116 -95 -150 -113 -15 -8 -50 -31 -77 -51 -28 -20 -57 -39 -65 -42 -8 -4 -22
-11 -30 -16 -8 -5 -22 -12 -30 -15 -8 -3 -22 -10 -30 -14 -20 -12 -133 -50
-200 -68 -40 -11 -61 -12 -78 -5 -17 8 -33 7 -65 -5 -81 -30 -142 -45 -202
-48 -33 -2 -78 -8 -100 -14 -99 -26 -162 -12 -97 22 29 15 180 158 213 202 11
14 33 23 65 28 69 9 141 37 204 79 102 68 235 169 305 232 39 34 79 65 90 68
29 7 96 6 124 -2z m1493 -18 c8 -10 31 -34 52 -53 36 -33 38 -34 51 -16 18 24
49 14 42 -13 -5 -21 10 -31 44 -31 10 0 19 -7 19 -15 0 -18 -1 -18 -64 0 -28
7 -72 19 -98 26 -66 16 -108 44 -108 72 0 43 38 61 62 30z m-953 -47 c-12 -10
-59 -15 -59 -6 0 5 14 10 32 10 17 0 29 -2 27 -4z m-1651 -57 c-2 -15 -24 -29
-82 -55 -85 -36 -116 -42 -116 -21 0 13 162 97 188 97 8 0 12 -9 10 -21z
m1662 12 c0 -5 -20 -14 -45 -20 -50 -12 -62 -29 -46 -59 9 -17 -4 -34 -102
-129 -62 -60 -122 -115 -134 -122 -29 -15 -30 -41 -1 -41 14 0 66 44 155 133
l134 132 114 5 c146 6 149 -5 30 -90 -33 -24 -77 -58 -98 -77 -20 -18 -42 -33
-47 -33 -6 0 -28 -18 -49 -39 -21 -21 -61 -51 -87 -67 -27 -15 -67 -45 -90
-66 -47 -45 -108 -65 -229 -74 -45 -4 -87 -13 -96 -20 -14 -12 -18 -11 -34 6
-23 25 -39 25 -81 -1 -38 -23 -87 -22 -92 2 -5 26 93 126 131 134 49 11 144
68 228 137 42 35 105 86 140 113 77 62 139 122 139 135 0 21 65 50 113 50 26
0 47 -4 47 -9z m395 -115 c-47 -48 -85 -94 -85 -102 0 -8 -5 -14 -11 -14 -17
0 -91 -79 -84 -90 13 -22 43 -8 71 33 16 23 66 78 112 121 l82 79 0 -49 c0
-27 4 -65 10 -84 7 -23 7 -45 0 -66 -13 -39 -117 -137 -199 -187 -65 -40 -69
-42 -112 -51 -18 -4 -29 -14 -33 -31 -7 -28 -27 -33 -46 -10 -6 7 -33 17 -58
20 -41 6 -84 16 -131 31 -9 3 5 16 35 35 60 38 83 66 84 100 0 30 80 111 133
134 17 8 76 57 130 109 98 95 179 149 185 123 1 -7 -36 -52 -83 -101z m1094
-2 c112 -112 177 -164 208 -164 22 0 57 -33 84 -77 11 -20 27 -33 39 -33 12 0
20 -7 20 -16 0 -22 64 -84 87 -84 10 0 24 -5 31 -12 8 -8 15 -8 26 2 31 25
186 -106 186 -158 0 -13 -3 -12 -19 2 -24 22 -75 18 -79 -6 -2 -12 3 -18 15
-18 10 0 42 -9 72 -20 29 -12 61 -18 71 -15 18 6 47 -19 32 -29 -5 -3 -42 -6
-83 -7 -59 -1 -84 3 -116 20 -56 28 -128 53 -241 85 -52 15 -119 38 -150 52
-87 39 -96 42 -113 42 -9 -1 -31 10 -49 23 -44 32 -172 161 -212 214 -18 23
-48 51 -67 61 -36 20 -132 133 -124 147 7 13 131 8 136 -5 3 -9 12 -6 30 10
l25 24 27 -41 c15 -22 36 -43 46 -46 11 -4 19 -14 19 -23 0 -31 230 -242 264
-242 34 0 15 37 -36 70 -69 45 -214 180 -222 206 -3 12 -26 44 -51 72 -25 27
-45 55 -45 61 0 6 18 11 42 11 40 0 47 -5 147 -106z m-689 77 c0 -23 -16 -36
-25 -21 -9 14 1 40 15 40 5 0 10 -9 10 -19z m206 -58 c30 -32 54 -62 54 -68 0
-5 21 -30 46 -55 25 -25 83 -88 129 -141 46 -52 99 -106 119 -120 42 -28 47
-49 11 -49 -18 0 -41 19 -91 80 -36 44 -70 80 -74 80 -5 0 -17 16 -26 35 -9
19 -23 35 -30 35 -12 0 -12 -4 0 -28 8 -16 22 -35 31 -42 24 -20 105 -127 105
-138 0 -6 -12 -15 -27 -21 -16 -7 -46 -22 -68 -36 -22 -13 -51 -24 -64 -24
-23 -1 -31 5 -128 98 -29 28 -53 48 -53 45 0 -4 -7 -1 -15 6 -15 13 -21 50 -7
50 13 -1 42 -27 42 -39 0 -6 7 -11 15 -11 8 0 24 -5 35 -12 26 -17 38 -2 14
17 -64 51 -106 75 -129 75 l-26 0 3 87 c2 51 7 88 14 90 6 2 24 -16 39 -39 42
-63 171 -188 195 -188 37 0 23 36 -29 73 -27 20 -79 72 -117 116 -37 45 -70
81 -74 81 -4 0 -14 14 -23 32 -21 44 -8 68 40 68 31 0 43 -8 89 -57z m1422
-76 c32 -22 39 -46 15 -54 -15 -5 -83 58 -83 77 0 15 22 7 68 -23z m-3538 3
c0 -12 -54 -40 -77 -40 -14 1 -12 6 12 25 30 25 65 33 65 15z m1910 -76 c0
-24 -4 -44 -10 -44 -5 0 -10 23 -10 51 0 31 4 48 10 44 6 -3 10 -26 10 -51z
m-1318 -64 c-30 -28 -62 -39 -62 -22 0 11 63 51 80 51 9 0 2 -11 -18 -29z
m-67 -39 c3 -6 -3 -15 -14 -20 -26 -14 -31 -14 -31 3 0 21 34 34 45 17z m1070
-88 c4 -10 9 -268 12 -573 5 -490 4 -557 -9 -568 -13 -10 -28 -9 -79 3 -35 8
-87 15 -116 15 -28 0 -54 4 -58 9 -3 6 -27 13 -53 16 -26 4 -56 10 -67 15 -11
4 -63 14 -115 20 -55 8 -110 21 -131 33 -25 13 -49 18 -74 15 -31 -4 -40 0
-65 29 -19 21 -39 33 -55 33 -29 0 -85 26 -85 39 0 5 -24 25 -53 45 -69 48
-119 127 -125 201 -4 52 -4 52 39 82 43 30 46 31 204 36 142 4 180 10 334 46
96 23 212 45 258 51 123 14 163 45 163 125 0 43 -21 65 -95 101 -89 44 -94 76
-19 120 24 14 44 30 44 35 0 5 25 23 55 40 30 17 58 35 61 40 8 14 21 11 29
-8z m476 -125 c43 -45 79 -87 79 -94 0 -6 -16 -24 -36 -39 -48 -37 -74 -82
-74 -128 0 -50 35 -86 115 -117 54 -22 78 -25 240 -27 138 -3 200 1 265 13
177 35 270 20 354 -57 44 -40 56 -59 70 -107 20 -73 20 -106 0 -165 -30 -88
-169 -186 -283 -201 -30 -4 -63 -12 -74 -17 -10 -6 -35 -13 -55 -15 -21 -2
-66 -8 -102 -13 -36 -4 -76 -9 -90 -9 -165 -8 -307 -18 -315 -23 -5 -4 -50 -4
-100 0 l-90 6 -2 55 c-5 115 -2 1003 3 1011 3 5 7 9 10 9 3 0 41 -37 85 -82z
m-1101 58 c0 -15 -37 -32 -47 -22 -3 3 -3 12 0 21 8 19 47 20 47 1z m41 -87
c46 -6 88 -15 94 -20 5 -5 27 -9 49 -9 28 0 48 -7 65 -23 15 -13 56 -36 92
-51 73 -30 125 -75 115 -101 -9 -25 -69 -45 -133 -45 -33 0 -105 -14 -168 -31
-136 -37 -314 -51 -343 -27 -34 31 -57 29 -147 -7 -186 -75 -234 -131 -235
-276 0 -40 6 -54 39 -95 22 -26 60 -60 85 -75 24 -15 47 -33 51 -38 3 -6 20
-11 37 -11 17 0 39 -6 47 -13 13 -11 107 -55 186 -88 11 -5 42 -13 68 -19 27
-6 58 -17 71 -25 37 -24 172 -54 275 -61 53 -3 124 -15 159 -25 35 -10 116
-24 180 -30 64 -6 126 -17 137 -24 11 -7 81 -18 155 -25 74 -6 183 -19 241
-29 117 -20 198 -56 374 -163 50 -30 109 -65 133 -77 23 -12 42 -25 42 -30 0
-18 32 -41 56 -41 14 0 27 -7 30 -15 4 -8 11 -15 18 -16 15 -1 125 -138 154
-191 14 -28 22 -59 22 -94 0 -44 3 -52 24 -62 39 -18 51 -74 39 -179 -6 -48
-16 -106 -23 -128 -6 -22 -12 -49 -13 -60 -3 -25 -15 -45 -28 -45 -6 0 -7 22
-3 60 5 48 4 60 -7 60 -13 0 -59 -124 -59 -156 0 -6 -10 -23 -21 -38 -27 -34
-17 -45 20 -23 34 20 51 22 51 6 0 -10 -69 -95 -102 -126 -69 -65 -127 -113
-136 -113 -6 0 -25 -12 -42 -27 -18 -15 -45 -34 -60 -42 -16 -9 -52 -31 -82
-48 -66 -41 -76 -41 -74 -2 1 30 -3 33 -89 71 -49 23 -125 53 -167 67 -43 14
-78 31 -78 36 0 9 68 82 223 245 19 19 51 59 71 87 21 29 45 57 53 61 9 5 17
29 20 56 3 25 10 49 14 52 5 3 9 16 9 30 0 36 27 30 36 -8 l7 -33 15 40 c8 22
16 60 17 85 1 25 5 53 9 62 6 12 -5 31 -40 68 -61 65 -84 78 -96 56 -14 -25
-24 -20 -56 32 -21 31 -47 55 -79 72 -26 14 -67 38 -91 53 -23 15 -59 35 -79
43 -40 17 -182 59 -228 67 -16 3 -59 13 -95 22 -36 9 -97 19 -136 23 -39 4
-79 14 -89 22 -12 10 -40 14 -93 13 -60 -1 -83 2 -108 18 -31 19 -32 19 -56
-1 -22 -17 -27 -18 -44 -5 -10 8 -26 15 -35 15 -9 0 -30 7 -45 15 -16 8 -54
15 -84 15 -30 0 -91 7 -135 16 -44 8 -118 19 -165 24 -143 16 -200 34 -231 71
-25 30 -27 31 -37 13 -11 -19 -11 -19 -48 1 -20 11 -39 27 -42 37 -2 9 -14 18
-25 20 -13 2 -23 12 -25 23 -5 24 -61 85 -79 85 -7 0 -17 9 -23 20 -6 11 -26
28 -45 37 -18 10 -44 34 -57 53 -17 25 -31 35 -50 35 -35 0 -62 27 -77 78 -7
23 -17 52 -22 65 -16 42 -11 62 16 62 29 0 30 2 9 42 -13 25 -14 38 -4 76 6
25 23 59 36 76 20 22 24 37 20 59 -5 24 0 34 32 64 20 19 50 42 67 51 67 34
233 153 275 197 68 70 135 105 206 106 33 1 73 5 89 9 45 11 103 11 196 -1z
m1614 -50 c104 -11 113 -14 195 -62 47 -27 94 -57 105 -66 11 -9 38 -23 60
-30 22 -7 47 -19 55 -26 44 -37 79 -23 43 17 -15 17 -15 18 1 18 65 0 265
-155 250 -194 -6 -15 -8 -15 -24 -1 -18 16 -50 21 -50 7 0 -4 16 -24 36 -43
67 -65 78 -93 79 -199 0 -78 -4 -103 -22 -142 -13 -26 -23 -54 -23 -63 0 -39
-88 -152 -126 -161 -34 -9 -30 -24 6 -24 23 0 42 11 75 46 25 25 45 42 45 37
0 -14 -164 -195 -201 -223 -39 -28 -164 -85 -224 -101 -22 -6 -69 -26 -104
-45 -35 -19 -71 -34 -80 -34 -9 0 -49 22 -89 49 -40 28 -90 55 -110 62 -20 7
-46 18 -57 24 -11 7 -31 16 -45 20 -14 4 -38 17 -55 29 -16 11 -79 38 -140 58
-60 20 -105 38 -100 39 6 1 85 3 177 4 177 3 292 16 398 45 36 10 81 21 100
25 37 8 86 28 188 77 68 33 110 75 190 191 71 102 72 123 8 168 -30 21 -46 41
-50 61 -9 44 -72 125 -119 152 -23 14 -73 35 -112 47 -38 12 -77 28 -86 36
-22 19 -38 16 -78 -11 -33 -23 -47 -25 -176 -29 -98 -2 -147 -7 -162 -17 -18
-12 -30 -12 -68 -2 -25 7 -58 12 -74 12 -37 0 -151 57 -151 76 0 8 35 37 77
64 l77 49 21 -23 c20 -22 27 -23 69 -15 58 11 66 15 66 38 0 24 -20 41 -46 41
-36 0 -37 18 -2 23 67 8 146 7 253 -4z m-725 -54 c0 -19 -4 -35 -10 -35 -11 0
-13 30 -4 54 10 25 14 19 14 -19z m1290 -510 c0 -8 -2 -15 -4 -15 -2 0 -6 7
-10 15 -3 8 -1 15 4 15 6 0 10 -7 10 -15z m-1283 -209 c-4 -9 -11 -16 -17 -16
-11 0 -14 33 -3 44 11 10 26 -11 20 -28z m-3 -162 c7 -18 0 -34 -15 -34 -5 0
-9 11 -9 25 0 28 15 34 24 9z m-1639 -15 c4 -5 18 -14 31 -19 20 -8 35 -40 19
-40 -21 0 -75 37 -75 52 0 20 15 24 25 7z m-1150 -379 c125 -20 293 -103 390
-192 62 -57 145 -166 145 -192 0 -9 7 -19 15 -22 8 -3 24 -31 35 -62 12 -31
25 -61 29 -67 4 -5 9 -30 10 -55 2 -25 5 -49 8 -53 8 -13 13 -188 7 -219 -5
-25 -10 -28 -49 -28 -24 0 -56 5 -72 11 -15 6 -43 7 -63 3 -35 -7 -35 -7 25
-20 33 -7 75 -13 93 -14 50 0 61 -34 33 -102 -37 -88 -55 -118 -71 -118 -9 0
-40 16 -70 35 -57 36 -75 41 -85 26 -3 -5 22 -24 56 -42 34 -18 68 -43 76 -55
14 -22 12 -27 -42 -94 -32 -38 -64 -70 -72 -70 -18 0 -103 80 -138 130 -15 22
-34 40 -42 40 -21 0 -5 -24 71 -107 83 -90 87 -114 19 -137 -25 -9 -47 -15
-48 -13 -2 1 -10 17 -19 35 -22 43 -40 32 -19 -12 9 -19 13 -41 10 -50 -9 -22
-120 -71 -182 -80 -27 -4 -74 -10 -103 -15 -29 -4 -54 -5 -57 -3 -3 3 -5 158
-5 344 0 320 1 338 18 338 13 0 28 -19 47 -60 34 -70 63 -103 51 -57 -7 29 10
37 32 15 7 -7 12 -8 12 -3 0 5 -16 25 -35 45 -33 34 -40 51 -37 97 2 21 5 22
65 17 62 -5 95 5 83 24 -3 5 -37 13 -76 17 -65 7 -70 9 -70 31 l0 24 -48 -24
-49 -25 -6 -98 c-4 -54 -7 -225 -7 -380 0 -155 -3 -288 -6 -297 -10 -25 -71
-20 -192 16 -112 33 -181 70 -310 165 -74 54 -142 143 -179 231 -8 20 -20 43
-26 51 -17 20 -37 82 -37 113 0 14 -7 55 -16 90 -15 55 -15 77 -5 168 11 97
19 125 65 248 30 80 142 234 203 280 88 66 260 150 324 158 29 4 63 10 74 15
28 11 169 11 240 -1z m1808 -14 c14 -14 42 -29 63 -34 22 -5 70 -17 109 -26
38 -9 85 -25 105 -35 19 -10 47 -21 63 -25 28 -7 38 -26 12 -26 -8 0 -24 -13
-36 -29 -12 -16 -41 -43 -64 -60 -32 -23 -52 -49 -80 -108 -33 -71 -36 -83
-30 -133 5 -45 4 -53 -6 -42 -35 34 -38 -4 -8 -132 32 -136 72 -185 183 -226
30 -12 61 -31 69 -44 20 -30 105 -86 130 -86 11 0 35 -11 53 -25 46 -35 168
-89 260 -114 159 -45 345 -110 419 -147 28 -14 70 -33 95 -41 26 -9 68 -37
100 -67 31 -28 82 -73 114 -100 67 -56 110 -119 131 -190 8 -26 26 -69 40 -94
24 -42 25 -50 15 -101 -6 -31 -16 -81 -21 -111 -20 -111 -31 -147 -74 -235
-87 -177 -100 -196 -156 -229 -25 -15 -28 -14 -79 30 -59 51 -126 88 -144 81
-7 -3 -34 6 -59 19 -26 13 -53 21 -61 18 -8 -3 -17 -1 -20 5 -4 6 10 17 31 26
21 9 59 33 84 55 29 25 58 40 80 42 29 3 34 7 37 33 2 16 12 41 22 55 41 58
44 130 8 198 -13 26 -101 92 -121 92 -8 0 -19 11 -25 25 -7 14 -24 31 -39 37
-16 7 -37 19 -48 28 -103 86 -528 284 -730 340 -44 12 -89 29 -100 36 -11 8
-26 14 -33 14 -8 0 -52 18 -98 39 -68 32 -98 54 -159 117 -72 74 -74 78 -58
96 22 24 10 46 -38 70 -73 35 -151 156 -132 205 5 13 1 15 -22 9 -15 -4 -40
-4 -56 -1 -25 6 -27 9 -19 26 8 14 17 18 35 13 30 -7 31 4 6 48 -44 75 -36
322 13 422 14 29 26 59 26 66 0 17 39 79 70 111 14 15 45 49 70 77 25 28 46
51 47 51 1 1 13 -10 26 -23z m3810 0 c21 -9 42 -14 47 -11 4 3 37 -8 72 -25
34 -16 69 -30 76 -30 6 0 12 -4 12 -9 0 -5 15 -14 33 -22 43 -17 180 -150 230
-224 48 -69 96 -180 108 -245 4 -25 13 -67 18 -95 14 -73 13 -151 -3 -204 -8
-25 -24 -82 -36 -126 -27 -102 -109 -242 -183 -312 -101 -96 -289 -203 -357
-203 -19 0 -62 -9 -94 -20 -47 -16 -61 -17 -68 -8 -4 7 -8 185 -8 395 l0 382
-68 45 c-65 44 -102 57 -102 36 0 -5 18 -19 40 -30 28 -14 38 -25 33 -36 -4
-12 -14 -14 -39 -9 -47 8 -114 -13 -114 -37 0 -22 19 -23 84 -3 58 18 76 19
76 4 0 -18 -24 -35 -65 -49 -22 -7 -47 -18 -55 -25 -8 -7 -32 -20 -53 -29 -33
-13 -57 -40 -45 -51 2 -2 33 13 70 35 132 76 140 64 33 -51 -89 -95 -101 -129
-16 -45 l60 59 3 -39 3 -38 48 82 c26 45 47 86 47 91 0 4 6 14 14 20 11 9 15
7 20 -11 8 -30 8 -616 0 -656 -5 -26 -11 -31 -43 -35 -20 -2 -54 2 -76 9 -22
8 -54 14 -72 14 -17 0 -35 5 -38 10 -3 6 -19 10 -36 10 -16 0 -38 8 -48 18
-11 9 -27 23 -35 30 -14 11 -14 16 -1 41 19 37 8 47 -17 16 -28 -36 -61 -32
-108 15 -22 22 -44 40 -50 40 -5 0 -17 12 -27 28 -9 15 -34 46 -55 69 -43 49
-45 57 -19 80 11 9 18 20 15 25 -3 5 -12 4 -20 -3 -30 -25 -60 9 -97 112 -32
88 -24 109 44 109 19 0 44 7 55 15 10 8 32 15 48 15 22 0 27 3 19 11 -8 8 -28
6 -73 -5 -34 -9 -76 -16 -95 -16 -28 0 -33 4 -39 31 -12 63 -7 224 9 245 8 10
15 34 15 52 0 18 9 50 20 72 11 22 20 48 20 58 0 11 7 25 15 32 12 10 26 6 77
-20 35 -18 71 -38 80 -44 19 -11 34 -3 24 12 -3 6 -27 20 -54 33 -102 48 -107
78 -28 165 171 189 375 278 621 270 74 -2 122 -9 148 -20z m-3123 -91 c0 -8
-7 -15 -15 -15 -8 0 -15 7 -15 15 0 8 7 15 15 15 8 0 15 -7 15 -15z m-81 -28
c13 -16 5 -27 -20 -27 -9 0 -19 9 -22 20 -6 24 24 28 42 7z m278 -2 c37 -15
38 -17 38 -64 0 -26 -5 -54 -11 -62 -9 -10 -9 -33 0 -89 7 -46 9 -145 6 -253
-3 -99 -2 -181 3 -184 11 -7 8 -68 -4 -80 -9 -9 -9 -19 1 -42 19 -46 -15 -181
-45 -181 -22 0 -19 68 5 105 25 38 25 55 1 55 -12 0 -23 -12 -31 -32 -32 -88
-36 -92 -61 -62 -22 26 -25 223 -5 274 13 33 14 52 6 111 -6 39 -8 74 -6 78 3
3 5 101 7 216 1 116 4 213 6 218 7 12 50 8 90 -8z m-397 -34 c0 -16 -19 -23
-40 -16 -30 10 -24 25 10 25 17 0 30 -4 30 -9z m660 -38 c25 -9 54 -24 66 -34
11 -11 30 -19 43 -19 56 0 166 -88 216 -174 25 -43 27 -54 23 -122 -3 -46 -11
-81 -20 -92 -9 -9 -26 -37 -39 -61 -13 -24 -29 -53 -36 -65 -7 -11 -59 -66
-116 -121 -57 -55 -113 -115 -126 -132 -21 -31 -51 -44 -51 -23 0 6 -5 10 -11
10 -6 0 -8 -8 -5 -17 3 -10 -3 -29 -13 -42 l-18 -24 -13 34 -14 34 -3 -32 c-5
-40 -27 -49 -43 -17 -10 18 -11 29 -2 47 6 12 13 85 15 162 2 77 9 221 16 320
23 358 32 405 70 389 9 -3 36 -13 61 -21z m-435 -161 c8 -187 8 -180 -4 -312
-5 -58 -6 -109 -2 -115 12 -17 4 -184 -9 -200 -16 -20 -46 -11 -82 23 -35 33
-35 39 2 47 17 4 30 13 30 21 0 18 -5 18 -35 -2 -37 -24 -78 -10 -135 49 -27
28 -50 55 -50 59 0 4 44 8 98 8 95 0 137 9 112 25 -6 4 -56 9 -110 12 -87 5
-100 4 -106 -11 -5 -13 -9 -14 -20 -5 -8 6 -14 19 -14 28 0 9 -7 25 -15 35 -8
11 -15 30 -15 43 0 26 -9 29 -29 11 -11 -11 -12 -6 -7 25 6 30 4 37 -9 37 -8
0 -15 7 -15 15 0 8 9 15 20 15 17 0 20 7 20 41 0 22 4 49 10 59 7 13 6 21 -5
30 -26 21 -17 30 30 30 40 0 47 3 58 27 15 34 97 112 117 113 18 0 72 26 109
52 42 30 48 11 56 -160z m911 -77 c12 -48 -16 -45 -31 3 -5 16 -2 22 9 22 9 0
18 -11 22 -25z m-2491 -360 c0 -14 -9 -21 -32 -26 -17 -3 -49 -20 -70 -36 -21
-17 -56 -39 -78 -49 -26 -12 -45 -30 -54 -51 -15 -33 -42 -50 -62 -38 -7 5 -6
12 4 23 8 10 19 55 26 101 6 47 17 88 24 93 6 4 64 7 127 6 107 -3 115 -4 115
-23z m3658 16 c20 -8 26 -18 30 -53 4 -45 -13 -88 -36 -88 -6 -1 -60 23 -119
52 -102 51 -130 78 -95 91 22 9 195 7 220 -2z m-3172 -44 c11 -42 17 -50 106
-146 48 -52 72 -78 114 -127 31 -36 120 -114 129 -114 6 0 10 -7 10 -15 0 -8
10 -20 23 -26 12 -7 27 -18 32 -25 11 -13 54 -39 123 -75 52 -26 61 -44 35
-70 -17 -18 -25 -19 -67 -9 -77 17 -96 3 -101 -72 -4 -50 7 -48 31 5 17 37 23
42 57 45 l37 3 -80 -82 c-86 -88 -120 -142 -140 -226 -13 -58 -16 -60 -46 -39
-36 25 -145 78 -151 73 -6 -7 36 -34 110 -72 l60 -30 -1 -85 c-1 -119 7 -165
34 -206 25 -36 24 -54 -1 -54 -8 0 -19 -9 -25 -20 -8 -14 -21 -20 -45 -20 -34
0 -35 1 -35 43 0 23 4 59 9 80 11 47 4 48 -15 2 -14 -34 -34 -47 -34 -23 0 6
-7 19 -16 29 -22 25 -11 51 47 108 27 27 49 53 49 60 0 24 -27 9 -63 -34 -26
-31 -46 -45 -62 -45 -14 0 -25 4 -25 8 0 4 -22 42 -49 83 -26 41 -57 95 -69
121 -11 25 -29 55 -40 66 -11 11 -23 29 -27 41 -3 11 -15 23 -26 26 -24 8 -24
27 1 50 18 16 41 18 242 16 219 -2 258 1 258 21 0 7 -27 8 -76 3 -76 -7 -234
10 -234 26 0 14 -37 16 -55 3 -25 -19 -65 -18 -65 1 0 17 -35 21 -45 5 -12
-19 -25 -10 -25 18 l-1 27 -25 -29 c-19 -22 -31 -27 -49 -22 -83 20 -81 20
-67 4 7 -9 26 -21 42 -28 21 -9 30 -19 30 -36 0 -12 5 -26 10 -29 6 -4 10
-132 10 -351 0 -333 -1 -344 -19 -344 -11 0 -29 13 -41 30 -22 31 -78 90 -86
90 -15 0 2 -30 41 -71 47 -50 57 -74 28 -65 -10 3 -57 10 -104 15 -120 14
-201 60 -178 103 14 27 3 35 -19 15 -21 -19 -48 -22 -58 -6 -3 6 -22 17 -40
25 -19 8 -62 47 -100 92 -124 145 -186 290 -199 465 -7 95 -7 97 14 97 12 0
24 -7 27 -15 4 -8 10 -15 15 -15 17 0 9 27 -16 50 -21 20 -25 33 -25 82 0 31
6 75 14 95 8 21 17 51 20 66 4 15 17 37 30 48 14 12 22 28 19 38 -2 9 6 30 19
46 13 16 35 47 49 68 34 50 105 107 135 107 15 0 27 9 36 28 8 17 34 37 68 54
123 60 249 87 402 86 l118 0 11 -41z m3217 -130 c2 -12 -3 -17 -17 -17 -15 0
-21 6 -21 21 0 25 33 22 38 -4z m237 -417 c0 -13 -6 -25 -12 -27 -16 -6 -27
21 -19 43 9 23 31 11 31 -16z m-4415 1 c0 -11 -4 -22 -9 -25 -12 -8 -34 21
-26 34 11 17 35 11 35 -9z m-40 -41 c17 -17 20 -33 20 -120 0 -54 5 -110 11
-124 9 -19 9 -36 0 -69 -12 -43 -12 -43 54 -168 109 -200 140 -244 204 -278
31 -16 76 -48 100 -70 24 -23 49 -41 55 -41 6 0 38 -11 71 -24 33 -13 68 -27
78 -30 9 -3 17 -14 17 -24 0 -14 -13 -21 -50 -31 -27 -7 -66 -24 -86 -37 -20
-14 -39 -23 -42 -20 -2 3 -25 -13 -50 -34 -50 -45 -54 -46 -72 -25 -11 13 -27
-5 -105 -119 -50 -74 -113 -182 -140 -241 -46 -99 -48 -108 -36 -140 9 -27 9
-39 0 -57 -8 -15 -10 -53 -6 -119 6 -110 -5 -139 -50 -139 -30 0 -93 44 -93
65 0 7 -8 16 -17 19 -10 3 -67 19 -128 36 -60 18 -114 36 -120 41 -5 5 -35 9
-66 9 -39 0 -63 5 -73 16 -14 14 -16 98 -16 779 0 718 1 765 18 773 9 5 53 15
97 21 44 7 89 16 100 21 11 5 55 20 98 34 72 23 79 24 84 8 9 -26 35 -52 44
-46 5 3 0 22 -10 43 -22 41 -20 44 27 84 40 32 55 34 82 7z m4533 -5 c38 -16
59 -44 56 -73 -3 -31 1 -33 25 -16 23 15 30 14 98 -10 84 -29 192 -55 261 -63
l47 -5 -2 -776 -3 -777 -60 -7 c-33 -4 -82 -14 -110 -22 -27 -9 -61 -16 -75
-16 -14 0 -49 -11 -78 -25 -30 -14 -65 -25 -77 -25 -16 0 -28 -9 -37 -27 -16
-34 -71 -67 -97 -58 -30 9 -44 56 -36 127 4 43 1 81 -9 118 -22 82 2 93 44 20
5 -8 11 -12 15 -8 7 7 -143 286 -230 428 -28 47 -68 115 -88 151 -20 36 -43
72 -52 79 -19 16 -19 27 0 64 8 15 15 36 15 45 -1 9 -8 2 -18 -17 -17 -31 -19
-32 -34 -15 -8 10 -21 29 -28 42 -11 22 -9 27 31 62 53 46 99 66 99 43 0 -9
-5 -25 -11 -37 -6 -13 2 -7 20 13 17 19 33 44 37 55 3 11 21 43 40 70 33 49
114 188 191 329 21 38 43 78 50 89 6 12 9 25 7 29 -3 5 -24 -19 -45 -53 -30
-46 -43 -59 -52 -50 -8 8 -7 24 3 63 7 29 13 89 13 133 0 64 3 86 19 108 23
31 24 32 71 12z m-2766 -49 c15 -13 47 -33 71 -45 25 -13 49 -34 55 -49 21
-46 65 -110 88 -126 l22 -15 -37 -21 c-20 -12 -36 -29 -36 -37 0 -11 6 -10 26
6 29 23 59 26 98 11 36 -13 32 -32 -16 -80 -36 -34 -48 -40 -73 -35 -25 4 -34
0 -57 -29 -27 -34 -27 -34 -11 -75 13 -33 14 -49 6 -76 -7 -21 -7 -37 -2 -41
12 -7 12 -44 0 -44 -25 0 -48 52 -54 121 -6 68 -4 76 24 125 33 59 24 83 -16
39 -30 -32 -40 -64 -38 -130 1 -69 12 -115 36 -147 22 -30 121 -81 179 -92 19
-3 43 -15 53 -26 10 -11 24 -20 31 -20 8 0 33 -19 56 -43 68 -67 264 -157 342
-157 49 0 243 -118 267 -161 5 -11 7 -24 4 -30 -4 -5 3 -26 14 -45 35 -59 20
-93 -16 -36 -10 15 -20 29 -23 32 -3 3 -10 14 -16 25 -11 20 -44 34 -44 18 0
-4 15 -25 34 -46 18 -21 43 -57 55 -80 12 -23 31 -55 41 -72 11 -18 19 -50 19
-79 1 -39 -3 -52 -23 -67 -16 -13 -26 -34 -31 -66 -4 -27 -14 -56 -22 -65 -15
-16 -20 -39 -26 -113 -1 -23 -13 -37 -51 -62 -26 -18 -52 -33 -56 -33 -5 0
-30 18 -55 40 -25 22 -50 40 -55 40 -18 0 -78 61 -84 85 -4 14 -11 25 -17 25
-6 0 -19 10 -29 23 -17 20 -17 24 -3 39 8 9 29 20 47 24 47 10 79 44 41 44
-10 0 -15 10 -15 34 0 18 7 39 15 46 8 7 15 21 15 31 0 12 7 19 20 19 23 0 25
-17 5 -44 -16 -22 -20 -66 -6 -66 16 0 30 26 42 78 14 60 12 65 -66 122 -27
21 -70 56 -94 79 -24 22 -48 41 -53 41 -5 0 -52 20 -104 45 -51 25 -104 45
-116 45 -13 0 -37 8 -53 18 -17 11 -48 22 -69 26 -22 4 -55 18 -75 32 -20 13
-43 24 -52 24 -9 0 -28 9 -42 20 -14 11 -41 27 -59 35 -19 7 -58 30 -87 49
-29 20 -61 36 -71 36 -10 0 -23 6 -29 14 -9 11 -7 15 9 19 30 8 25 41 -9 58
-39 19 -111 105 -118 140 -3 17 -12 29 -21 29 -11 0 -13 -9 -9 -41 10 -75 -17
-36 -36 52 -24 109 -18 211 17 294 14 33 26 75 26 92 0 28 3 32 22 30 15 -1
23 4 26 17 6 27 108 158 140 178 39 26 95 23 129 -6z m239 -82 c18 -15 17 -15
-16 -10 -43 8 -64 26 -29 26 14 0 34 -7 45 -16z m43 -84 c32 0 32 -1 29 -42
-2 -23 -8 -43 -14 -45 -11 -4 -44 25 -75 64 -10 12 -25 25 -34 31 -10 5 -15
14 -11 21 6 8 17 6 40 -9 19 -11 48 -20 65 -20z m175 -10 l41 -19 0 -260 c0
-275 -3 -293 -43 -272 -28 15 -43 65 -47 168 -6 124 -21 274 -30 302 -7 22 -6
23 19 19 34 -7 44 13 22 44 -30 43 -21 47 38 18z m-1314 -155 c5 -22 17 -49
26 -60 16 -20 16 -20 8 0 -13 37 -10 69 9 73 10 2 17 -3 17 -12 0 -9 5 -16 10
-16 6 0 9 -3 8 -7 -3 -12 50 -112 85 -160 25 -35 28 -48 23 -77 -6 -31 -4 -36
12 -36 10 0 29 -11 42 -25 20 -21 22 -31 17 -77 -6 -52 -31 -88 -61 -88 -6 0
-22 38 -36 85 -14 48 -30 85 -37 85 -7 0 -13 -5 -13 -11 0 -6 -9 -22 -20 -37
-25 -32 -11 -55 18 -29 17 16 19 15 35 -18 20 -42 22 -79 5 -92 -7 -6 -31 -14
-52 -17 -21 -4 -49 -14 -60 -22 -20 -12 -25 -11 -54 9 l-32 22 0 297 c0 228 3
297 13 301 12 4 17 -7 37 -88z m1404 79 c7 -19 -2 -37 -15 -29 -12 8 -12 45 0
45 5 0 12 -7 15 -16z m250 -134 c45 -69 66 -118 66 -157 0 -29 -39 -123 -51
-123 -4 0 -25 -17 -46 -38 -21 -21 -59 -47 -85 -57 -75 -28 -80 -18 -78 135 0
69 1 136 0 150 -1 46 15 195 23 208 6 9 23 4 68 -20 48 -26 69 -46 103 -98z
m626 -21 c0 -11 -4 -17 -10 -14 -5 3 -10 15 -10 26 0 11 5 17 10 14 6 -3 10
-15 10 -26z m-1235 -39 c-3 -5 -10 -10 -16 -10 -5 0 -9 5 -9 10 0 6 7 10 16
10 8 0 12 -4 9 -10z m1328 -291 c9 -17 15 -35 11 -40 -9 -16 -32 -10 -39 11
-3 11 -13 20 -22 20 -14 0 -14 3 2 20 24 26 27 25 48 -11z m-1913 0 c0 -6 14
-24 31 -40 29 -27 30 -31 19 -59 -9 -21 -10 -58 -5 -125 6 -85 5 -94 -9 -89
-9 3 -23 1 -31 -6 -12 -10 -22 -7 -52 16 -60 44 -68 65 -32 85 15 8 24 8 32 0
21 -21 26 -11 9 18 -15 28 -15 32 1 66 21 43 14 60 -10 26 l-16 -24 -18 24
c-27 35 -23 54 19 88 38 31 62 39 62 20z m970 -53 c0 -15 -37 -32 -47 -22 -9
8 17 36 33 36 8 0 14 -6 14 -14z m870 -3 c0 -10 -10 -29 -21 -43 -22 -26 -22
-26 -8 30 3 13 18 29 27 30 1 0 2 -8 2 -17z m815 -21 c21 -15 45 -62 45 -90 0
-70 -43 -78 -151 -28 -56 25 -81 52 -56 61 6 3 31 11 55 20 23 8 53 21 65 30
24 17 28 18 42 7z m-2763 -34 c40 -54 40 -55 4 -94 -33 -37 -36 -37 -63 -24
-36 18 -83 61 -83 75 0 15 27 39 65 59 42 22 49 20 77 -16z m2033 9 c32 -18
41 -29 43 -55 3 -30 0 -34 -43 -52 -42 -18 -49 -18 -74 -5 -43 22 -47 58 -14
100 16 19 33 35 38 35 6 0 28 -10 50 -23z m-1688 -119 c88 -43 93 -52 56 -91
-33 -35 -63 -103 -63 -143 0 -14 -7 -39 -16 -57 l-17 -31 -23 27 c-36 42 -83
214 -91 331 l-5 69 49 -37 c26 -20 76 -51 110 -68z m-503 76 c6 -16 -9 -44
-23 -44 -19 0 -42 27 -35 43 8 22 50 22 58 1z m2043 -25 c-4 -15 1 -22 19 -30
35 -13 30 -64 -9 -92 -38 -29 -55 -11 -32 33 9 17 14 37 12 43 -4 12 -14 -2
-61 -85 -35 -63 -49 -62 -43 2 4 34 13 60 31 81 14 17 26 34 26 38 0 8 38 29
54 30 4 1 6 -8 3 -20z m454 -20 l29 -20 0 -320 c0 -265 -2 -319 -14 -319 -8 0
-17 15 -20 33 -4 17 -13 46 -20 62 l-13 30 -17 -37 -18 -38 31 -48 c34 -53 45
-107 15 -78 -25 26 -47 20 -40 -9 6 -22 3 -25 -23 -25 -37 0 -61 -9 -61 -22 0
-7 19 -8 51 -4 45 6 51 5 45 -9 -4 -10 3 -19 19 -27 20 -9 28 -8 44 6 11 10
32 17 48 16 45 -3 49 -1 25 16 -27 19 -28 40 -1 79 36 54 70 126 63 136 -3 6
-22 -12 -40 -40 -19 -28 -39 -51 -44 -51 -6 0 -10 116 -10 310 0 260 2 310 14
310 8 0 44 -36 81 -81 45 -55 70 -78 77 -71 7 7 -13 38 -61 95 -85 101 -90
120 -28 111 52 -8 214 -61 245 -80 36 -23 29 -49 -43 -151 -18 -26 -47 -30
-65 -8 -7 8 -17 15 -23 15 -6 0 -1 -10 11 -23 26 -27 28 -70 7 -111 -23 -43
-18 -51 11 -17 35 42 58 39 90 -8 26 -40 54 -60 54 -39 0 6 -16 28 -35 49 -50
56 -53 81 -19 146 16 30 33 63 39 74 12 23 38 33 64 24 28 -9 170 -160 219
-234 61 -91 103 -229 109 -359 l6 -103 -27 12 c-38 18 -44 3 -11 -31 24 -25
27 -34 21 -71 -9 -53 -64 -197 -88 -228 -10 -13 -18 -33 -18 -43 0 -31 -179
-208 -210 -208 -16 0 -29 -8 -35 -22 -17 -37 -147 -95 -263 -118 -57 -11 -123
-20 -147 -20 -111 0 -362 72 -358 102 6 53 10 65 26 76 29 22 47 65 35 86 -8
14 -8 17 1 11 7 -4 23 -4 37 -1 17 5 24 13 24 31 0 25 -23 35 -35 15 -3 -5
-16 -10 -29 -10 -19 0 -21 -4 -18 -33 5 -43 -60 -147 -92 -147 -26 0 -139 91
-184 148 -52 65 -40 81 40 57 54 -16 161 -21 123 -6 -11 5 -58 16 -105 26 -47
10 -89 21 -93 25 -4 4 25 24 65 45 40 21 86 49 101 62 16 12 35 23 43 23 7 0
44 19 81 43 38 24 96 58 130 76 34 18 70 42 79 52 16 18 16 19 -3 19 -11 0
-39 -14 -62 -30 -23 -17 -52 -35 -64 -41 -12 -5 -40 -20 -62 -34 -22 -14 -49
-30 -60 -35 -11 -5 -45 -25 -75 -44 -150 -96 -180 -109 -194 -87 -3 4 1 34 9
65 8 31 15 62 15 68 0 22 -16 -6 -28 -48 -7 -22 -21 -49 -32 -59 -19 -17 -20
-17 -39 28 -40 94 -37 147 10 147 11 0 19 5 19 10 0 6 -13 10 -30 10 -29 0
-30 2 -30 43 0 50 15 80 29 58 7 -11 15 -9 41 10 35 27 65 75 51 83 -5 4 -18
-6 -29 -21 -30 -41 -38 -21 -12 32 13 26 27 80 33 121 10 66 9 79 -11 136 -12
35 -22 70 -22 78 0 22 236 250 259 250 28 0 61 -47 61 -87 0 -31 2 -33 20 -23
14 8 19 18 15 33 -3 12 3 49 14 82 15 47 23 60 40 61 11 1 28 7 37 15 13 11
125 43 167 48 5 1 22 -8 38 -20z m-2782 -6 c21 -18 21 -21 19 -362 -2 -265 -6
-345 -15 -349 -8 -2 -13 5 -13 17 0 11 -5 23 -11 27 -6 3 -19 25 -30 48 -36
77 -105 190 -119 194 -21 7 -3 -46 38 -111 20 -32 46 -72 58 -90 63 -99 79
-137 67 -155 -10 -16 -7 -20 20 -31 26 -10 40 -28 72 -93 22 -45 52 -95 66
-112 15 -17 30 -42 34 -56 12 -37 52 -93 59 -82 9 14 -29 98 -47 105 -8 3 -18
19 -22 36 -3 17 -26 61 -51 98 -24 37 -44 75 -44 85 0 18 2 17 39 -1 41 -21
51 -19 51 11 0 14 8 18 32 18 30 0 31 1 16 17 -10 9 -37 19 -60 23 -28 4 -42
10 -40 19 1 7 -7 15 -19 18 -22 6 -22 21 -4 95 4 15 4 36 0 45 -7 16 -9 15
-14 -7 -4 -14 -15 -26 -24 -28 -16 -3 -17 18 -16 280 0 156 4 291 8 301 6 16
12 13 44 -24 47 -52 61 -44 18 9 -48 61 -43 74 27 65 84 -9 106 -17 116 -40 6
-12 20 -20 35 -21 71 -3 86 -9 89 -31 2 -13 -1 -28 -7 -34 -6 -6 -11 -20 -11
-32 0 -11 -7 -31 -16 -43 -17 -25 -18 -24 19 -26 24 -2 27 1 27 32 0 41 16 72
36 72 32 0 136 -85 199 -163 36 -44 65 -86 65 -94 0 -7 11 -18 25 -23 22 -8
24 -13 18 -57 -6 -54 10 -111 57 -207 27 -53 31 -84 10 -71 -4 3 -10 -2 -14
-10 -3 -9 -19 -15 -41 -15 -28 0 -38 5 -47 25 -6 14 -14 25 -18 25 -4 0 -29
27 -55 61 -35 44 -51 57 -59 49 -8 -8 4 -24 42 -61 28 -27 52 -58 52 -69 0
-26 10 -50 22 -50 14 0 95 -69 102 -87 4 -9 0 -24 -9 -33 -10 -11 -13 -27 -9
-47 4 -19 0 -42 -10 -61 -9 -17 -16 -38 -16 -46 0 -9 -18 -35 -40 -57 -22 -23
-40 -50 -40 -60 0 -11 -4 -19 -10 -19 -5 0 -10 -12 -10 -26 0 -31 -135 -169
-188 -191 -31 -13 -36 -12 -53 3 -20 18 -22 14 -19 -23 2 -25 -32 -43 -170
-89 -72 -24 -101 -28 -190 -28 -119 1 -201 18 -325 70 -54 23 -84 41 -90 56
-6 13 -19 24 -30 26 -24 5 -125 79 -125 92 0 5 -18 30 -41 56 -22 25 -38 53
-35 60 3 7 -3 16 -13 19 -30 9 -101 178 -106 255 -3 36 -9 110 -13 165 -6 69
-5 104 2 114 6 8 9 24 8 37 -2 13 6 36 17 50 12 15 21 37 21 49 0 30 28 95 40
95 6 0 20 21 31 48 14 32 50 76 115 139 100 98 121 110 154 93 17 -9 20 -8 20
9 0 32 11 51 31 51 10 0 44 10 76 22 57 21 157 45 199 47 12 1 31 -7 43 -16z
m3305 -41 c27 -39 35 -82 15 -82 -19 0 -68 40 -74 61 -4 13 0 28 11 40 9 10
18 19 19 19 1 0 14 -17 29 -38z m-829 -41 c7 -12 -12 -24 -25 -16 -11 7 -4 25
10 25 5 0 11 -4 15 -9z m-282 -9 c-7 -4 -26 -46 -44 -92 -18 -47 -33 -86 -35
-88 -1 -2 -11 1 -21 7 -24 12 -43 70 -32 99 10 25 95 82 124 82 13 0 16 -3 8
-8z m-1180 -52 c8 0 32 -17 53 -39 22 -21 76 -57 122 -80 45 -23 82 -43 82
-46 0 -21 -28 -56 -49 -61 -57 -12 -69 -22 -86 -75 -21 -62 -28 -161 -14 -197
6 -14 19 -32 29 -39 11 -8 20 -20 20 -28 0 -7 12 -26 28 -42 35 -38 166 -73
201 -54 18 10 30 7 84 -25 34 -21 71 -46 83 -56 11 -10 58 -44 104 -76 101
-69 114 -86 83 -111 -51 -42 -31 -110 62 -211 l42 -45 -7 -63 c-5 -40 -15 -72
-27 -85 -37 -41 -63 -98 -63 -136 0 -47 -17 -98 -35 -105 -7 -2 -21 4 -31 15
-9 10 -21 19 -26 19 -14 0 -98 83 -113 111 -13 24 -12 28 8 46 12 11 41 28 65
38 24 10 55 32 68 49 21 24 24 36 19 65 -6 35 -39 81 -58 81 -9 0 -38 27 -151
137 -34 34 -81 66 -132 90 -43 20 -119 61 -169 91 -49 30 -98 58 -110 63 -70
32 -160 144 -177 223 -9 37 -18 136 -20 208 -1 24 -4 27 -24 22 -24 -6 -24 -6
-24 91 0 66 3 94 11 89 7 -4 8 -26 4 -64 -10 -87 16 -123 28 -40 2 14 8 33 12
43 4 11 5 54 2 97 -6 69 -4 81 14 104 19 25 22 25 49 11 16 -8 35 -15 43 -15z
m424 -161 c25 -16 32 -26 27 -38 -11 -22 -5 -196 8 -246 20 -80 21 -105 5
-105 -23 0 -77 55 -79 82 -1 12 -2 66 -3 118 0 52 -7 114 -14 137 -14 44 -10
73 10 73 6 0 27 -10 46 -21z m-107 -39 c0 -11 -7 -20 -15 -20 -15 0 -21 21 -8
33 12 13 23 7 23 -13z m264 -94 c23 -48 20 -79 -9 -106 -26 -24 -27 -24 -39
29 -8 37 5 111 19 111 7 0 20 -15 29 -34z m-681 -390 c15 -23 33 -50 42 -62
15 -20 14 -21 -22 -22 -81 -3 -83 -3 -83 -26 0 -12 -6 -30 -13 -40 -12 -16
-14 -16 -26 -2 -11 13 -10 20 5 43 13 20 18 42 15 80 -4 64 12 98 38 81 10 -6
30 -29 44 -52z m-2038 -2 c77 -25 125 -55 125 -79 0 -7 -22 -45 -50 -86 -27
-41 -50 -81 -50 -89 -1 -8 -14 -31 -30 -50 -17 -19 -30 -41 -30 -48 0 -8 -13
-30 -30 -49 -16 -18 -30 -42 -30 -53 0 -39 19 -28 47 28 16 31 49 89 73 127
24 39 59 98 77 132 19 35 43 69 54 77 19 13 24 11 62 -22 130 -116 205 -208
193 -238 -3 -7 -36 -29 -73 -49 -123 -65 -149 -83 -131 -90 11 -4 54 14 116
49 55 31 105 56 111 56 23 0 75 -147 66 -188 -4 -20 -1 -33 10 -42 21 -18 21
-106 -1 -114 -29 -11 -512 -7 -519 5 -4 6 -13 8 -20 5 -17 -6 -85 12 -85 24 0
4 21 18 48 31 26 12 61 33 79 45 17 13 38 24 46 24 8 0 22 9 32 20 18 19 17
20 -5 20 -13 0 -40 -11 -59 -23 -156 -103 -172 -108 -168 -51 3 49 -16 53 -43
9 -12 -19 -28 -35 -36 -35 -12 0 -14 54 -14 349 0 325 1 350 18 353 22 5 115
-16 217 -48z m-255 -346 c1 -311 3 -397 14 -410 7 -10 17 -18 21 -18 5 0 33
-18 62 -41 49 -37 83 -45 83 -20 0 5 -19 20 -42 33 -85 47 -76 48 294 46 l343
-3 -1 -30 c-4 -70 -17 -151 -28 -170 -7 -11 -20 -41 -30 -68 -35 -92 -39 -92
-193 2 -54 32 -128 74 -166 91 -37 18 -70 37 -73 41 -3 5 -15 9 -27 9 l-22 -1
21 -17 c12 -10 105 -67 208 -127 102 -60 186 -115 186 -122 0 -25 -96 -136
-160 -185 -80 -61 -220 -130 -320 -158 -88 -24 -207 -26 -265 -5 -22 8 -59 14
-81 15 -35 0 -109 27 -164 60 -8 5 -28 12 -43 15 -29 6 -58 30 -167 137 -104
103 -200 269 -200 348 0 16 -7 60 -15 99 -40 190 38 443 186 604 64 70 179
167 199 167 6 0 30 11 53 24 61 36 199 72 285 75 l42 1 0 -392z m5574 370 c8
-31 8 -683 -1 -691 -7 -8 -43 21 -43 35 0 5 -10 22 -22 38 -15 21 -30 30 -50
30 -15 0 -28 -4 -28 -8 0 -5 18 -28 40 -52 47 -51 43 -62 -34 -87 -41 -13
-103 -17 -310 -21 -142 -2 -274 -1 -292 3 -34 6 -34 6 -34 60 0 42 3 55 15 55
11 0 15 12 15 52 0 61 33 161 67 203 13 17 47 66 76 110 63 97 80 100 143 29
27 -31 43 -43 48 -35 5 7 -9 30 -33 56 -23 25 -41 52 -41 60 0 20 49 64 72 65
15 0 88 -94 88 -113 0 -4 19 -37 43 -74 24 -38 69 -114 100 -170 32 -57 62
-103 68 -103 15 0 11 15 -16 54 -14 20 -25 41 -25 45 0 5 -19 37 -42 71 -39
59 -98 161 -149 257 -18 34 -20 45 -10 57 14 16 103 53 161 67 19 4 51 12 70
17 19 6 54 10 76 11 35 1 43 -3 48 -21z m147 8 c96 -15 240 -77 319 -138 106
-82 220 -228 260 -335 24 -65 60 -238 60 -290 0 -19 -7 -59 -16 -89 -9 -31
-13 -62 -10 -70 3 -9 -3 -37 -13 -62 -10 -26 -26 -68 -35 -94 -37 -103 -151
-243 -257 -315 -82 -56 -225 -123 -264 -123 -19 0 -47 -7 -61 -16 -21 -14 -42
-16 -127 -11 -92 6 -200 25 -252 46 -138 56 -200 96 -302 195 -71 70 -102 108
-98 118 4 9 25 24 48 34 57 25 127 67 127 76 0 15 -23 7 -80 -27 -32 -19 -71
-38 -88 -41 -30 -6 -32 -4 -63 62 -32 70 -40 97 -61 212 -10 54 -10 65 2 72 9
6 170 10 369 10 l354 0 -19 -21 c-10 -12 -40 -32 -66 -45 -52 -26 -68 -44 -41
-44 19 0 145 70 176 97 16 15 17 48 17 416 l0 400 43 -6 c23 -3 58 -8 78 -11z
m-3347 -141 c8 -8 19 -15 24 -15 5 0 15 -6 21 -14 10 -11 5 -20 -21 -45 -18
-17 -36 -31 -40 -31 -9 0 -58 60 -58 72 0 10 40 47 52 48 4 0 13 -7 22 -15z
m2644 -11 c4 -27 -34 -62 -50 -46 -8 8 -8 19 2 42 14 35 43 37 48 4z m-1625
-8 c9 -22 -18 -40 -33 -22 -6 9 -9 20 -5 26 9 15 32 12 38 -4z m-99 -23 c-6
-23 -4 -25 13 -21 12 3 25 3 30 -1 23 -16 83 -96 83 -111 0 -15 -33 -50 -48
-50 -4 1 -31 37 -61 81 -48 71 -52 83 -43 105 16 33 34 31 26 -3z m-977 -59
c30 -34 32 -39 18 -54 -8 -9 -15 -22 -15 -29 0 -7 -13 -52 -29 -99 -25 -73
-29 -100 -27 -167 3 -89 35 -175 86 -230 64 -69 100 -113 100 -122 0 -6 -8
-21 -19 -34 -25 -33 -32 -69 -32 -186 0 -117 10 -145 74 -209 23 -23 62 -63
86 -90 40 -45 42 -49 22 -52 -12 -2 -41 8 -66 22 -24 14 -50 26 -58 26 -17 0
-167 99 -210 139 -16 14 -38 43 -50 64 -11 20 -24 37 -29 37 -12 0 -57 76 -90
154 -31 72 -72 250 -64 273 4 10 35 13 117 13 79 0 110 3 107 12 -3 7 -40 11
-114 12 l-109 1 3 55 c2 30 12 97 23 149 10 51 19 95 19 97 0 6 79 44 92 44
19 0 20 41 2 61 -13 14 -13 22 -4 41 20 39 93 108 114 108 11 0 35 -16 53 -36z
m233 -20 c0 -17 -22 -14 -28 4 -2 7 3 12 12 12 9 0 16 -7 16 -16z m-11 -35
c20 -16 67 -60 105 -96 63 -61 67 -68 50 -80 -10 -7 -27 -13 -38 -13 -24 0
-86 -70 -86 -96 0 -16 1 -16 14 2 21 28 29 12 32 -66 2 -80 9 -92 74 -125 25
-13 53 -31 61 -41 16 -20 193 -153 239 -181 22 -12 45 -45 76 -105 24 -48 44
-94 44 -103 0 -8 5 -15 11 -15 5 0 7 -5 4 -10 -8 -14 12 -76 32 -95 12 -12 12
-21 3 -50 -6 -19 -17 -41 -24 -48 -6 -6 -21 -25 -33 -42 -16 -22 -29 -30 -57
-31 -33 -1 -36 2 -36 27 0 15 4 31 10 34 5 3 17 31 26 61 20 69 9 102 -44 129
-20 11 -53 33 -74 50 -20 16 -57 47 -81 68 -25 20 -53 37 -61 37 -9 0 -25 9
-36 20 -11 11 -27 20 -36 20 -24 0 -57 27 -186 153 -109 104 -118 116 -118
150 0 20 -5 37 -11 37 -7 0 -8 11 -4 29 3 17 2 32 -4 36 -16 9 -13 107 3 157
8 24 22 70 31 103 17 62 48 115 67 115 6 0 27 -14 47 -31z m653 -21 c-6 -6
-15 -9 -18 -5 -4 3 -4 14 0 23 5 13 9 15 18 6 9 -9 9 -15 0 -24z m-504 -8 c23
0 38 -28 19 -36 -15 -6 -87 23 -87 34 0 16 13 21 31 12 10 -6 26 -10 37 -10z
m756 -46 c9 -4 16 -18 16 -34 0 -27 22 -60 39 -60 18 0 57 -134 68 -234 4 -35
1 -51 -8 -57 -17 -10 -98 -12 -163 -3 -46 7 -46 7 -46 45 0 22 4 39 8 39 5 0
16 16 25 35 18 38 25 169 12 238 -6 33 -5 37 13 37 11 0 27 -3 36 -6z m-598
-107 c-3 -29 -6 -107 -6 -174 0 -99 -3 -123 -14 -123 -8 0 -23 19 -34 43 -28
58 -39 298 -16 322 14 13 18 13 46 -1 30 -15 30 -17 24 -67z m-2010 -70 c29
-25 28 -52 -1 -64 -22 -8 -31 4 -39 50 -8 43 2 47 40 14z m3954 -22 c0 -15
-21 -35 -37 -35 -13 0 -19 51 -7 63 8 8 44 -15 44 -28z m-1143 -10 c19 -19 52
-44 74 -56 36 -18 40 -23 34 -47 -11 -46 -32 -69 -70 -76 -61 -12 -75 -2 -75
54 0 26 -6 62 -13 80 -15 34 -11 80 6 80 5 0 25 -16 44 -35z m-1653 -2 c-3
-16 -8 -35 -12 -43 -3 -8 -8 -42 -11 -75 -6 -57 -7 -59 -38 -66 -20 -4 -43 -1
-59 7 -19 10 -30 11 -39 4 -18 -15 -187 -9 -192 7 -3 7 8 15 24 18 15 3 47 15
70 27 27 13 51 18 67 14 21 -5 25 -2 28 21 2 20 13 33 34 44 18 8 46 27 64 42
17 15 40 27 51 27 16 0 18 -5 13 -27z m1056 -33 c0 -11 -7 -20 -15 -20 -13 0
-14 4 -5 20 6 11 13 20 15 20 3 0 5 -9 5 -20z m-2095 -36 c18 -14 69 -40 111
-58 121 -51 111 -57 -78 -54 l-163 3 -3 44 c-6 78 2 91 54 91 33 0 54 -7 79
-26z m3803 -32 c5 -81 4 -82 -174 -82 -126 0 -154 3 -154 14 0 8 23 21 56 32
31 9 84 34 117 55 51 32 70 38 107 36 l45 -2 3 -53z m-2025 3 c8 -19 -13 -31
-24 -14 -13 20 -11 29 5 29 8 0 16 -7 19 -15z m1147 -37 c102 -33 92 -48 -30
-48 -55 0 -100 2 -100 5 0 3 7 22 15 41 10 25 20 34 30 30 8 -3 47 -16 85 -28z
m-642 -9 c-7 -22 -13 -27 -19 -18 -8 14 6 49 21 49 5 0 4 -14 -2 -31z m328
-85 c4 -14 1 -37 -5 -50 -6 -14 -14 -50 -17 -82 -10 -85 -98 -252 -186 -347
-37 -42 -68 -83 -68 -92 0 -9 -3 -13 -7 -9 -5 4 -8 44 -9 89 0 88 2 83 -76
208 -52 82 -55 96 -33 139 17 33 156 150 179 150 8 0 18 5 21 10 3 6 48 10
100 10 93 0 95 0 101 -26z m-536 -89 c0 -8 -4 -15 -10 -15 -5 0 -10 7 -10 15
0 8 5 15 10 15 6 0 10 -7 10 -15z m-474 -180 c3 -8 21 -20 39 -26 l33 -12 -1
-66 c-1 -36 2 -76 6 -88 5 -14 4 -23 -1 -23 -12 0 -42 89 -42 124 0 34 -26 34
-34 1 -18 -69 40 -149 115 -161 26 -4 46 -15 57 -31 49 -69 194 -203 221 -203
15 0 76 -73 90 -108 18 -42 7 -52 -20 -19 -22 29 -49 36 -49 13 0 -7 11 -25
25 -40 22 -24 25 -36 25 -102 0 -56 -3 -75 -12 -71 -7 2 -12 14 -10 27 1 12
-2 28 -7 34 -5 6 -12 30 -16 53 -5 31 -17 53 -48 83 -23 22 -47 40 -54 40 -7
0 -13 4 -13 9 0 5 -39 41 -87 80 -49 38 -94 79 -101 90 -6 12 -30 32 -52 46
-22 14 -40 31 -40 38 0 8 -11 36 -25 63 -44 84 -72 234 -48 257 12 12 44 7 49
-8z m298 -148 c27 -22 28 -24 13 -53 -10 -20 -12 -36 -6 -52 11 -29 4 -42 -22
-42 -25 0 -39 36 -39 104 0 73 8 80 54 43z m-501 -227 c33 -22 71 -43 86 -46
14 -4 35 -15 46 -25 11 -9 33 -19 49 -21 52 -6 38 -22 -42 -49 -42 -15 -84
-29 -93 -33 -12 -5 -22 2 -37 26 -11 18 -35 58 -54 89 -40 65 -49 85 -41 93
12 11 26 6 86 -34z m335 -141 c19 -30 8 -49 -56 -96 -53 -38 -59 -46 -75 -106
-9 -36 -17 -81 -17 -99 0 -47 33 -112 86 -168 40 -43 56 -83 36 -92 -4 -1 -18
-20 -31 -41 -13 -21 -34 -43 -48 -48 -29 -11 -23 -24 13 -33 14 -4 49 -22 77
-41 52 -35 81 -39 40 -5 -28 23 -29 30 -3 30 26 0 28 -8 34 -100 5 -71 15
-123 31 -162 9 -22 38 -23 59 -2 16 15 19 38 21 154 1 31 5 68 9 83 6 25 10
27 52 25 69 -2 83 32 39 96 -14 20 -25 41 -25 45 0 4 26 33 58 64 129 125 157
190 150 339 -2 48 -2 88 1 88 24 -1 33 -21 27 -61 l-7 -44 21 28 c12 15 27 27
34 27 18 0 127 -101 191 -177 73 -85 72 -100 -7 -141 -35 -18 -101 -54 -148
-82 -47 -27 -113 -64 -147 -81 -34 -18 -72 -43 -85 -57 l-23 -24 25 7 c14 3
84 41 155 84 208 125 283 163 304 156 37 -12 85 -200 85 -335 0 -130 -26 -235
-85 -350 -134 -262 -395 -423 -684 -423 -171 0 -320 48 -458 147 -172 122
-268 279 -311 508 -21 115 -20 146 9 280 41 186 60 225 93 195 18 -17 54 -38
172 -102 36 -19 84 -49 106 -66 26 -19 50 -29 65 -27 20 2 12 10 -50 51 -41
26 -80 47 -87 47 -6 0 -17 7 -25 16 -7 8 -44 31 -83 50 -86 43 -96 51 -96 78
0 47 209 256 255 256 6 0 17 -12 24 -27 23 -53 93 -163 103 -163 14 0 4 23
-41 100 -21 36 -42 77 -45 93 -6 25 -3 29 39 47 45 19 75 18 75 -4 0 -6 6 0
13 14 8 16 28 30 57 39 25 8 47 18 48 23 6 14 16 9 30 -13z m106 -75 c16 -6
22 -45 9 -58 -5 -4 -6 -59 -4 -122 3 -96 1 -114 -12 -114 -15 0 -26 71 -26
174 0 21 -3 47 -6 56 -3 10 -1 21 5 25 5 3 10 15 10 26 0 21 1 22 24 13z m-86
-129 c3 -54 1 -59 -29 -85 -31 -26 -32 -28 -20 -58 8 -18 17 -32 20 -32 4 0
23 -21 42 -46 19 -25 53 -59 77 -76 48 -33 52 -45 19 -53 -27 -7 -85 42 -105
88 -7 15 -33 50 -58 77 -37 40 -44 53 -35 64 7 8 9 25 6 38 -11 44 41 154 69
145 6 -2 12 -30 14 -62z m215 19 c3 -4 -1 -20 -9 -37 -12 -23 -18 -27 -25 -16
-16 25 -11 59 9 59 10 0 21 -3 25 -6z m-73 -130 c0 -8 -4 -14 -10 -14 -5 0
-10 9 -10 21 0 11 5 17 10 14 6 -3 10 -13 10 -21z m-10 -74 c0 -11 -4 -20 -10
-20 -5 0 -10 9 -10 20 0 11 5 20 10 20 6 0 10 -9 10 -20z m-84 2 c16 -11 25
-42 12 -42 -11 0 -37 29 -38 43 0 9 12 9 26 -1z m42 -264 c22 -22 11 -108 -14
-108 -9 0 -14 12 -14 38 0 20 -3 47 -6 60 -7 25 13 31 34 10z"/>
<path d="M5233 12638 c-6 -7 -13 -27 -16 -44 -10 -52 -76 -180 -109 -213 -17
-17 -41 -34 -52 -37 -29 -9 -56 -34 -56 -52 0 -13 3 -12 19 2 10 9 31 19 47
22 46 8 69 28 105 91 52 91 66 125 73 186 8 59 6 66 -11 45z"/>
<path d="M5267 12614 c-3 -3 -1 -18 4 -33 5 -14 12 -33 15 -41 8 -23 24 8 24
48 0 24 -4 32 -18 32 -10 0 -21 -3 -25 -6z"/>
<path d="M5246 12484 c-4 -9 -4 -19 -1 -22 2 -3 7 3 11 12 4 9 4 19 1 22 -2 3
-7 -3 -11 -12z"/>
<path d="M6170 12533 c0 -3 7 -15 17 -25 20 -22 36 -49 64 -108 30 -64 23
-131 -22 -205 -19 -31 -46 -69 -61 -83 -15 -15 -28 -31 -28 -35 0 -4 -16 -21
-35 -38 -19 -17 -35 -35 -35 -40 0 -17 25 -8 45 17 11 14 44 51 73 82 63 69
112 161 112 212 0 21 -7 55 -16 76 -26 62 -86 154 -100 154 -8 0 -14 -3 -14
-7z"/>
<path d="M6540 12516 c0 -23 156 -68 221 -64 67 4 81 28 17 28 -25 0 -78 11
-118 25 -84 28 -120 32 -120 11z"/>
<path d="M6542 12419 c2 -7 23 -17 45 -21 22 -3 57 -14 79 -23 101 -43 221
-62 212 -32 -3 7 -22 12 -49 12 -24 0 -46 3 -49 6 -8 11 -153 58 -199 65 -35
6 -43 4 -39 -7z"/>
<path d="M3660 12480 c-23 -7 -22 -8 11 -9 20 -1 41 -7 47 -13 5 -7 12 -45 14
-85 4 -55 14 -90 41 -147 20 -42 41 -76 47 -76 15 0 12 15 -9 57 -25 49 -61
186 -61 234 0 48 -26 59 -90 39z"/>
<path d="M3495 12447 c-88 -29 -117 -42 -122 -54 -9 -24 5 -26 39 -5 18 11 54
26 81 32 26 7 49 16 52 20 8 13 -19 17 -50 7z"/>
<path d="M3268 12334 c-25 -13 -38 -34 -22 -34 12 0 64 34 64 42 0 11 -11 9
-42 -8z"/>
<path d="M3170 12221 c0 -19 22 -23 38 -7 15 15 14 16 -11 16 -15 0 -27 -4
-27 -9z"/>
<path d="M4262 11613 c15 -15 31 -24 34 -20 10 10 -26 47 -45 47 -11 0 -8 -7
11 -27z"/>
<path d="M7562 12191 c-9 -5 -5 -11 14 -20 33 -15 40 -10 16 12 -10 9 -23 13
-30 8z"/>
<path d="M7650 12142 c0 -5 11 -14 25 -20 29 -14 34 2 6 18 -24 12 -31 13 -31
2z"/>
<path d="M7260 12119 c-19 -8 -21 -12 -11 -19 16 -9 49 0 51 15 2 14 -11 15
-40 4z"/>
<path d="M3186 11893 c-3 -4 -6 -15 -6 -25 0 -16 3 -17 20 -8 11 6 20 15 20
19 0 11 -26 22 -34 14z"/>
<path d="M5117 10864 c-8 -8 1 -24 14 -24 5 0 9 7 9 15 0 15 -12 20 -23 9z"/>
<path d="M2828 11417 c-27 -5 -48 -13 -48 -18 0 -17 30 -21 63 -9 67 27 58 42
-15 27z"/>
<path d="M6472 11818 c5 -15 179 -108 191 -101 14 9 -5 24 -86 66 -95 49 -111
54 -105 35z"/>
<path d="M6895 11611 c-3 -6 3 -15 14 -21 21 -11 37 2 26 20 -8 13 -32 13 -40
1z"/>
<path d="M3593 11436 c-56 -31 -104 -49 -125 -47 -10 1 -18 -2 -18 -8 0 -5
-17 -11 -37 -13 -44 -4 -58 -28 -16 -28 15 0 45 5 65 10 45 13 178 88 178 101
0 11 3 12 -47 -15z"/>
<path d="M7952 11433 c4 -21 60 -60 158 -109 41 -21 90 -51 108 -66 29 -25
103 -68 117 -68 19 0 -4 23 -56 55 -34 21 -76 51 -94 67 -18 15 -66 44 -107
63 -40 18 -82 43 -92 54 -23 25 -39 27 -34 4z"/>
<path d="M8050 10991 c0 -6 6 -11 14 -11 8 0 16 -4 18 -8 2 -5 16 -12 31 -16
26 -6 27 -5 17 14 -6 11 -16 20 -23 20 -7 0 -22 3 -34 6 -14 4 -23 2 -23 -5z"/>
<path d="M1867 11015 c-21 -7 -41 -16 -44 -19 -12 -12 23 -4 67 14 52 22 34
26 -23 5z"/>
<path d="M4195 11110 c-3 -5 1 -10 9 -10 8 0 18 5 21 10 3 6 -1 10 -9 10 -8 0
-18 -4 -21 -10z"/>
<path d="M7176 10951 c-6 -9 62 -46 70 -38 6 5 -45 47 -57 47 -4 0 -10 -4 -13
-9z"/>
<path d="M7280 10891 c0 -13 33 -31 56 -31 16 0 16 2 4 14 -20 19 -60 30 -60
17z"/>
<path d="M8470 10601 c-22 -7 -20 -8 17 -12 47 -5 63 -2 63 12 0 10 -44 10
-80 0z"/>
<path d="M4674 11060 c-26 -10 -40 -30 -22 -30 17 0 55 26 48 33 -3 3 -15 1
-26 -3z"/>
<path d="M4595 11019 c-12 -19 5 -23 22 -6 16 16 16 17 1 17 -9 0 -20 -5 -23
-11z"/>
<path d="M6840 10862 c0 -20 37 -55 98 -92 37 -22 92 -61 122 -85 30 -25 72
-54 92 -65 20 -11 41 -26 45 -33 4 -8 18 -19 29 -25 17 -9 25 -8 34 3 10 13 9
19 -5 35 -10 11 -22 20 -27 20 -5 0 -24 11 -42 25 -18 14 -37 25 -43 25 -5 0
-20 12 -34 26 -13 14 -41 35 -62 45 -21 11 -59 36 -84 55 -53 40 -123 78 -123
66z"/>
<path d="M6330 10485 c0 -9 9 -15 25 -15 18 0 23 4 19 15 -4 8 -15 15 -25 15
-10 0 -19 -7 -19 -15z"/>
<path d="M6400 10450 c0 -10 52 -40 70 -40 19 0 10 15 -21 33 -35 19 -49 22
-49 7z"/>
<path d="M6550 10373 c0 -11 58 -43 76 -43 24 0 16 19 -16 35 -31 16 -60 20
-60 8z"/>
<path d="M3986 10751 c-7 -11 18 -33 27 -24 4 3 7 12 7 20 0 15 -26 18 -34 4z"/>
<path d="M3703 10685 c-104 -96 -154 -134 -227 -168 -45 -22 -76 -43 -76 -52
0 -8 6 -15 13 -15 40 0 227 120 251 162 10 15 23 28 31 28 20 0 88 67 80 80
-11 17 -23 12 -72 -35z"/>
<path d="M5602 10628 c6 -18 28 -21 28 -4 0 9 -7 16 -16 16 -9 0 -14 -5 -12
-12z"/>
<path d="M5940 10338 c0 -12 97 -80 132 -93 18 -7 43 37 34 60 -6 16 -8 16
-31 1 -23 -15 -26 -14 -69 14 -47 32 -66 37 -66 18z"/>
<path d="M5527 10293 c-11 -10 13 -33 34 -33 25 0 24 16 0 30 -23 12 -26 12
-34 3z"/>
<path d="M4254 9785 c-9 -38 2 -275 15 -310 6 -16 16 -49 22 -73 11 -49 45
-90 61 -74 6 6 6 16 0 28 -16 32 -32 89 -32 117 0 14 -5 38 -12 54 -6 15 -12
84 -12 153 -1 108 -4 125 -18 128 -12 2 -19 -5 -24 -23z"/>
<path d="M4805 9510 c-27 -16 -67 -38 -87 -50 -38 -21 -50 -40 -24 -40 8 0 36
15 63 34 26 18 60 37 73 41 33 10 51 25 44 36 -8 13 -14 11 -69 -21z"/>
<path d="M4525 9354 c-43 -22 -51 -32 -32 -40 9 -3 32 4 52 16 57 35 40 56
-20 24z"/>
<path d="M4847 9285 c-18 -37 -9 -46 17 -19 18 17 19 24 8 42 -6 8 -13 1 -25
-23z"/>
<path d="M5852 9812 c-19 -3 -23 -8 -18 -25 30 -107 8 -292 -50 -415 -40 -85
-32 -84 -163 -15 -45 24 -88 42 -94 40 -18 -6 66 -61 171 -112 26 -12 41 -13
71 -5 53 14 71 54 110 248 12 58 14 248 3 272 -4 9 -17 14 -30 12z"/>
<path d="M4372 10149 c-25 -10 -29 -31 -8 -48 22 -18 117 -10 130 11 5 9 8 19
6 22 -11 11 -109 22 -128 15z"/>
<path d="M3487 9795 c6 -17 25 -15 31 3 2 7 -5 12 -17 12 -14 0 -19 -5 -14
-15z"/>
<path d="M5300 8815 c0 -8 5 -15 10 -15 6 0 10 7 10 15 0 8 -4 15 -10 15 -5 0
-10 -7 -10 -15z"/>
<path d="M6032 8697 c-8 -9 3 -27 36 -64 26 -28 56 -62 66 -74 35 -42 29 -2
-8 60 -41 67 -78 98 -94 78z"/>
<path d="M6170 8525 c0 -14 33 -54 41 -50 10 7 0 37 -15 47 -13 9 -26 10 -26
3z"/>
<path d="M5910 8346 c0 -8 5 -18 10 -21 6 -3 10 1 10 9 0 8 -4 18 -10 21 -5 3
-10 -1 -10 -9z"/>
<path d="M6250 8245 c0 -14 5 -25 10 -25 6 0 10 11 10 25 0 14 -4 25 -10 25
-5 0 -10 -11 -10 -25z"/>
<path d="M6246 8141 c-9 -14 5 -42 18 -38 18 6 20 47 2 47 -8 0 -17 -4 -20 -9z"/>
<path d="M5780 8071 c-14 -28 -12 -51 4 -51 18 0 58 49 50 61 -10 16 -43 9
-54 -10z"/>
<path d="M2698 8301 c-37 -20 -76 -45 -86 -54 -10 -9 -21 -15 -24 -12 -3 3
-28 -9 -55 -27 -28 -18 -65 -41 -84 -51 -23 -13 -29 -21 -20 -26 12 -8 69 22
216 112 28 17 71 41 98 54 44 23 62 44 35 43 -7 -1 -43 -18 -80 -39z"/>
<path d="M2625 8060 c4 -6 78 -10 190 -10 112 0 186 4 190 10 4 7 -62 10 -190
10 -128 0 -194 -3 -190 -10z"/>
<path d="M2420 7976 c0 -4 58 -41 155 -98 132 -77 174 -98 179 -90 5 8 -114
92 -131 92 -4 0 -24 11 -43 23 -82 55 -160 91 -160 73z"/>
<path d="M2430 7797 c0 -17 73 -132 90 -142 19 -12 2 32 -39 97 -36 57 -51 71
-51 45z"/>
<path d="M2500 7804 c0 -12 71 -94 81 -94 20 0 7 34 -25 66 -31 31 -56 43 -56
28z"/>
<path d="M5910 6879 c0 -24 23 -21 28 4 2 10 -3 17 -12 17 -10 0 -16 -9 -16
-21z"/>
<path d="M5882 6818 c-7 -7 -12 -20 -12 -31 0 -24 33 -19 38 7 5 24 -11 39
-26 24z"/>
<path d="M7455 8291 c-3 -6 13 -20 36 -31 28 -15 40 -17 37 -8 -7 19 -65 51
-73 39z"/>
<path d="M7168 8063 c17 -2 47 -2 65 0 17 2 3 4 -33 4 -36 0 -50 -2 -32 -4z"/>
<path d="M7305 8060 c3 -5 28 -10 55 -10 27 0 52 5 55 10 4 6 -17 10 -55 10
-38 0 -59 -4 -55 -10z"/>
<path d="M7488 8063 c18 -2 45 -2 60 0 15 2 0 4 -33 4 -33 0 -45 -2 -27 -4z"/>
<path d="M7676 7764 c-10 -25 -7 -34 8 -28 19 7 28 44 11 44 -7 0 -16 -7 -19
-16z"/>
<path d="M7315 7749 l-30 -19 31 0 c18 0 38 8 49 20 17 19 17 20 -1 19 -10 0
-32 -9 -49 -20z"/>
<path d="M7483 7645 c-43 -46 -53 -65 -32 -65 13 0 74 62 89 91 19 35 -11 21
-57 -26z"/>
<path d="M7592 7605 c-14 -31 -15 -35 -4 -35 8 0 32 43 32 55 0 15 -19 1 -28
-20z"/>
<path d="M5340 7900 c0 -11 59 -44 67 -37 2 3 -5 15 -16 26 -22 22 -51 28 -51
11z"/>
<path d="M3650 7790 c8 -5 29 -10 45 -10 17 0 37 5 45 10 11 7 -3 10 -45 10
-42 0 -56 -3 -45 -10z"/>
<path d="M3967 7773 c-10 -9 -8 -43 2 -43 5 0 14 7 21 15 17 21 -4 48 -23 28z"/>
<path d="M3801 7766 c8 -9 109 -23 109 -16 0 4 -10 10 -22 14 -26 7 -94 8 -87
2z"/>
<path d="M3852 7578 c-7 -7 -12 -20 -12 -29 0 -9 -7 -22 -15 -29 -16 -14 -20
-40 -6 -40 10 0 38 40 51 75 10 27 0 41 -18 23z"/>
<path d="M3146 7562 c-3 -5 32 -30 77 -57 45 -27 98 -59 118 -72 19 -13 40
-23 46 -23 5 0 26 -11 46 -25 37 -24 61 -19 29 7 -17 14 -75 51 -122 78 -14 8
-59 33 -100 57 -79 45 -86 48 -94 35z"/>
<path d="M4130 7522 c-23 -7 -50 -34 -44 -43 5 -9 59 14 69 30 7 13 -6 20 -25
13z"/>
<path d="M3762 7420 c-14 -38 1 -48 22 -15 20 30 20 45 2 45 -8 0 -19 -13 -24
-30z"/>
<path d="M3970 7432 c-40 -18 -70 -46 -61 -55 10 -10 93 32 106 53 7 11 -22
12 -45 2z"/>
<path d="M3956 7321 c-37 -15 1 -21 40 -7 38 14 38 15 9 15 -16 0 -39 -4 -49
-8z"/>
<path d="M3770 7200 c0 -13 38 -32 51 -25 6 4 3 12 -8 21 -21 16 -43 18 -43 4z"/>
<path d="M3060 7167 c0 -26 71 -100 84 -87 7 7 -4 24 -37 58 -33 33 -47 42
-47 29z"/>
<path d="M3557 7063 c-50 -77 -69 -117 -60 -127 9 -8 115 172 110 187 -2 7
-25 -20 -50 -60z"/>
<path d="M3170 7041 c0 -7 14 -29 30 -48 24 -26 30 -30 30 -15 0 10 -13 31
-30 47 -17 16 -30 23 -30 16z"/>
<path d="M3240 6959 c0 -7 28 -46 62 -88 34 -42 66 -82 72 -89 7 -10 4 -24 -8
-47 -10 -18 -16 -39 -13 -47 3 -8 9 -2 18 16 12 25 17 28 51 23 43 -6 47 1 18
28 -11 10 -20 24 -20 32 0 7 -6 16 -14 19 -7 3 -37 34 -67 70 -56 68 -99 104
-99 83z"/>
<path d="M3130 6592 c0 -10 8 -29 18 -42 21 -31 42 -88 42 -117 0 -47 38 -35
42 14 2 24 -5 37 -30 58 -17 14 -37 44 -43 66 -13 40 -29 53 -29 21z"/>
<path d="M2781 5731 c-17 -32 -31 -64 -31 -70 0 -26 18 -6 52 59 25 46 33 70
24 70 -7 0 -27 -27 -45 -59z"/>
<path d="M4274 6834 c-4 -14 -2 -30 5 -37 8 -8 11 -1 11 26 0 43 -7 48 -16 11z"/>
<path d="M6264 6263 c-13 -43 -24 -63 -34 -63 -5 0 -10 -7 -10 -15 0 -8 -9
-15 -20 -15 -13 0 -20 -7 -20 -19 0 -10 -10 -30 -21 -45 -22 -28 -21 -48 1
-21 27 32 49 17 86 -57 20 -40 47 -87 60 -105 13 -17 24 -36 24 -41 0 -13 29
-36 36 -29 6 5 -13 47 -25 57 -4 3 -33 50 -64 105 -60 103 -68 138 -35 159 13
8 23 8 37 -1 25 -16 31 -8 31 42 0 55 -33 89 -46 48z"/>
<path d="M6100 6040 c-19 -15 -21 -20 -9 -20 16 0 46 27 38 35 -2 2 -15 -5
-29 -15z"/>
<path d="M5826 6016 c3 -8 37 -31 76 -51 62 -33 69 -40 65 -61 -2 -14 0 -27 4
-30 15 -9 69 35 63 51 -3 7 4 23 16 35 24 24 23 53 -3 58 -11 2 -17 -3 -17
-15 0 -16 -33 -63 -44 -63 -2 0 -34 20 -70 45 -69 46 -100 56 -90 31z"/>
<path d="M6900 5958 c0 -10 15 -32 33 -50 18 -18 43 -49 55 -69 23 -37 69 -75
79 -65 8 8 -18 42 -96 126 -45 48 -70 69 -71 58z"/>
<path d="M5938 5850 c-7 -11 -18 -20 -25 -20 -7 0 -17 -9 -23 -20 -12 -23 2
-27 20 -5 7 8 21 15 32 15 23 0 24 5 -21 -120 -48 -130 -51 -137 -71 -146 -14
-6 -17 -13 -11 -23 8 -12 16 -13 48 -3 21 6 48 14 61 17 30 9 18 25 -19 25
-34 0 -34 -1 -12 45 13 28 22 35 45 35 15 0 28 5 28 10 0 6 -6 10 -14 10 -8 0
-22 7 -31 16 -14 15 -14 18 0 34 27 30 48 106 35 129 -14 26 -26 27 -42 1z"/>
<path d="M6153 5824 c21 -14 46 -24 55 -22 12 3 4 11 -25 26 -58 30 -76 28
-30 -4z"/>
<path d="M6280 5760 c0 -12 40 -33 48 -25 4 4 -2 13 -12 21 -23 16 -36 18 -36
4z"/>
<path d="M6150 5602 c0 -5 14 -7 30 -4 17 2 30 6 30 8 0 2 -13 4 -30 4 -16 0
-30 -4 -30 -8z"/>
<path d="M6697 5527 c-5 -15 60 -67 84 -67 30 0 22 13 -30 47 -33 21 -51 28
-54 20z"/>
<path d="M6331 5431 c-34 -65 -38 -79 -16 -61 18 15 51 68 60 98 13 43 -12 22
-44 -37z"/>
<path d="M6391 5140 c-20 -5 -15 -8 31 -23 30 -9 77 -17 104 -17 l49 1 -40 15
c-54 21 -115 31 -144 24z"/>
<path d="M6665 5080 c-4 -6 9 -10 32 -10 28 0 34 3 23 10 -20 13 -47 13 -55 0z"/>
<path d="M3310 6278 c0 -8 16 -38 35 -68 38 -61 42 -81 20 -100 -8 -7 -15 -19
-15 -26 0 -8 -10 -19 -22 -25 -27 -12 -61 -55 -56 -71 4 -10 15 1 111 98 l38
39 -43 79 c-41 75 -68 105 -68 74z"/>
<path d="M3872 6238 c-13 -13 -16 -41 -5 -51 10 -10 33 13 33 34 0 23 -14 31
-28 17z"/>
<path d="M3930 6149 c10 -17 7 -27 -13 -58 -35 -52 -69 -122 -63 -128 10 -10
26 9 57 68 18 33 41 65 51 70 11 6 18 21 18 39 0 27 -3 30 -30 30 -28 0 -30
-2 -20 -21z"/>
<path d="M4060 6001 c0 -5 14 -21 30 -34 17 -14 30 -33 30 -41 0 -17 -87 -78
-155 -109 -22 -10 -53 -28 -70 -41 -16 -13 -41 -27 -55 -31 -29 -9 -50 -24
-50 -36 0 -16 22 -9 67 21 24 17 47 30 51 30 4 0 50 25 102 57 52 31 103 56
114 55 10 0 29 -11 42 -23 19 -18 27 -20 36 -11 10 10 8 19 -5 41 -22 38 -23
37 18 57 36 17 46 34 21 34 -8 0 -22 -7 -31 -16 -22 -22 -62 -5 -71 31 -5 21
-12 25 -40 25 -19 0 -34 -4 -34 -9z"/>
<path d="M3143 5854 c-74 -82 -89 -104 -74 -104 11 0 161 160 161 172 0 21
-24 2 -87 -68z"/>
<path d="M3810 5901 c0 -10 -10 -25 -22 -33 -12 -8 -18 -19 -14 -26 11 -18 20
-14 39 17 19 32 22 61 7 61 -5 0 -10 -8 -10 -19z"/>
<path d="M2983 5675 c-24 -25 -41 -50 -38 -56 7 -10 100 64 109 87 12 30 -29
12 -71 -31z"/>
<path d="M4222 5688 c-17 -17 -15 -29 10 -55 18 -20 20 -26 10 -48 -16 -34
-17 -32 19 -51 23 -11 34 -13 42 -5 9 9 4 18 -17 35 -23 18 -28 28 -24 51 7
36 -23 90 -40 73z"/>
<path d="M4048 5663 c23 -2 61 -2 85 0 23 2 4 4 -43 4 -47 0 -66 -2 -42 -4z"/>
<path d="M3955 5600 c3 -5 17 -10 31 -10 13 0 24 5 24 10 0 6 -14 10 -31 10
-17 0 -28 -4 -24 -10z"/>
<path d="M4025 5580 c3 -5 39 -9 78 -9 l72 2 -50 7 c-72 12 -107 12 -100 0z"/>
<path d="M3427 5511 c-80 -45 -99 -61 -74 -61 17 0 177 87 177 96 0 13 -44 -2
-103 -35z"/>
<path d="M3942 5498 c3 -7 31 -26 64 -42 32 -17 61 -33 64 -38 3 -4 23 -14 44
-23 55 -23 42 2 -20 37 -72 41 -142 78 -150 78 -3 0 -4 -5 -2 -12z"/>
<path d="M3927 5233 c-3 -4 -2 -23 0 -40 4 -24 11 -33 24 -33 11 0 19 7 19 16
0 19 -37 68 -43 57z"/>
<path d="M4170 5228 c-19 -5 -63 -15 -97 -21 -35 -6 -63 -15 -63 -19 0 -18 32
-20 77 -5 27 9 77 21 113 27 36 7 72 16 80 21 21 12 -65 10 -110 -3z"/>
<path d="M3845 5160 c3 -5 20 -10 36 -10 18 0 28 4 24 10 -3 6 -20 10 -36 10
-18 0 -28 -4 -24 -10z"/>
<path d="M3732 5142 c-12 -2 -20 -8 -17 -13 8 -12 62 -12 69 0 7 11 -21 18
-52 13z"/>
<path d="M2682 5328 c-7 -7 -12 -21 -12 -31 0 -16 2 -17 16 -7 24 21 37 50 21
50 -7 0 -18 -5 -25 -12z"/>
<path d="M2622 5255 c-12 -9 -22 -26 -22 -38 0 -21 1 -21 26 5 32 32 29 56 -4
33z"/>
<path d="M2507 5119 c-21 -22 -37 -45 -37 -50 0 -5 -9 -9 -20 -9 -11 0 -20 -7
-20 -15 0 -8 6 -15 13 -15 15 0 117 104 117 120 0 19 -17 10 -53 -31z"/>
<path d="M2908 4980 c-25 -5 -71 -15 -101 -24 -30 -9 -70 -16 -89 -17 -18 0
-64 -9 -103 -19 -61 -15 -65 -18 -33 -19 21 0 57 5 80 13 24 8 72 17 108 20
85 9 220 38 220 48 0 9 -16 9 -82 -2z"/>
<path d="M7502 5248 c3 -7 12 -14 21 -16 12 -2 15 1 11 12 -7 19 -38 22 -32 4z"/>
<path d="M7540 5210 c0 -6 9 -18 20 -27 11 -10 20 -22 20 -28 0 -9 56 -65 66
-65 14 0 -2 30 -42 76 -44 52 -64 66 -64 44z"/>
<path d="M7360 5134 c0 -10 60 -48 138 -88 82 -41 63 -8 -24 43 -78 45 -114
59 -114 45z"/>
<path d="M7480 4918 c0 -15 121 -30 141 -17 10 6 7 9 -11 10 -14 0 -49 4 -77
8 -29 4 -53 4 -53 -1z"/>
<path d="M7552 4674 c-45 -35 -30 -50 18 -18 22 15 37 30 34 35 -8 14 -16 11
-52 -17z"/>
<path d="M3725 8889 c-4 -6 -5 -13 -1 -16 8 -8 56 6 56 17 0 13 -47 13 -55 -1z"/>
<path d="M3613 8820 c-29 -17 -44 -40 -27 -40 15 0 64 36 64 47 0 16 1 17 -37
-7z"/>
<path d="M6730 8704 c0 -14 47 -43 70 -44 23 0 22 2 -12 25 -36 24 -58 31 -58
19z"/>
<path d="M3246 8615 c-21 -14 -60 -37 -87 -50 -27 -14 -49 -30 -49 -35 0 -15
23 -12 47 5 13 9 49 29 81 45 32 16 64 36 72 44 21 26 -21 20 -64 -9z"/>
<path d="M6910 8603 c0 -15 91 -66 101 -56 5 5 -8 19 -33 36 -41 27 -68 34
-68 20z"/>
<path d="M6428 7788 c8 -8 20 -8 44 -1 l33 11 -44 1 c-34 1 -42 -2 -33 -11z"/>
<path d="M6995 7568 c-29 -23 -106 -67 -163 -93 -18 -9 -35 -22 -39 -30 -3 -8
-13 -15 -23 -15 -27 0 -110 -50 -110 -66 0 -20 5 -18 79 27 36 22 122 72 191
111 69 39 129 74 135 79 21 20 -44 8 -70 -13z"/>
<path d="M6310 7518 c0 -7 9 -28 20 -46 29 -47 46 -30 18 19 -22 39 -38 50
-38 27z"/>
<path d="M6055 7491 c-6 -11 31 -34 47 -29 6 2 4 11 -6 21 -20 19 -32 21 -41
8z"/>
<path d="M6140 7436 c0 -18 60 -40 73 -27 6 6 -3 15 -21 25 -38 20 -52 20 -52
2z"/>
<path d="M5960 7351 c0 -12 37 -24 50 -16 20 12 10 25 -20 25 -16 0 -30 -4
-30 -9z"/>
<path d="M6235 7132 c-104 -58 -116 -68 -102 -80 9 -8 32 1 90 38 42 28 77 54
77 60 0 15 -10 12 -65 -18z"/>
<path d="M7031 7119 c-32 -44 -38 -59 -22 -59 18 0 74 81 64 91 -7 7 -21 -4
-42 -32z"/>
<path d="M6540 7131 c0 -15 18 -48 139 -255 36 -61 50 -95 45 -109 -3 -11 -36
-49 -71 -85 -42 -43 -61 -68 -52 -71 7 -2 41 26 74 62 34 37 66 67 72 67 5 0
18 -16 29 -35 22 -41 49 -57 38 -22 -3 12 -16 35 -27 50 -24 35 -18 52 47 124
26 29 45 57 41 63 -3 6 -29 -17 -57 -50 -28 -34 -55 -59 -61 -57 -22 7 -75 91
-165 259 -26 51 -52 79 -52 59z"/>
<path d="M6967 7043 c-4 -3 -7 -13 -7 -21 0 -12 3 -12 15 -2 8 7 15 16 15 21
0 11 -14 12 -23 2z"/>
<path d="M6316 7018 c-9 -12 -16 -30 -16 -39 0 -9 -7 -22 -15 -29 -8 -6 -30
-41 -50 -76 -20 -35 -43 -64 -50 -64 -31 0 -5 -76 29 -86 12 -4 29 -15 39 -26
15 -15 22 -16 33 -7 17 14 9 29 -16 29 -22 0 -50 36 -50 65 0 12 11 35 23 53
13 17 32 51 43 74 10 24 21 45 25 48 7 6 39 66 39 75 0 13 -20 3 -34 -17z"/>
<path d="M3120 4362 c0 -8 14 -16 63 -40 4 -2 7 3 7 11 0 7 -11 19 -25 25 -31
14 -45 15 -45 4z"/>
<path d="M7005 4356 c-11 -7 -51 -30 -90 -51 -38 -20 -82 -46 -97 -57 -16 -11
-28 -17 -28 -13 0 7 -45 -21 -82 -51 -15 -12 -33 -24 -40 -27 -7 -2 -10 -7 -6
-11 7 -9 75 24 135 65 23 16 46 29 52 29 5 0 40 20 77 45 36 25 72 45 78 45
13 1 46 24 46 34 0 11 -25 7 -45 -8z"/>
<path d="M3370 4215 c0 -2 21 -16 48 -31 26 -15 99 -57 162 -94 271 -159 383
-220 401 -220 20 0 -22 33 -81 63 -52 27 -97 54 -243 147 -35 22 -68 40 -74
40 -5 0 -47 23 -93 50 -72 43 -120 61 -120 45z"/>
<path d="M4150 3771 c0 -11 26 -22 34 -14 3 3 3 10 0 14 -7 12 -34 11 -34 0z"/>
<path d="M1030 2670 l0 -46 87 -11 c60 -7 90 -16 99 -27 20 -28 27 -334 20
-821 -6 -449 -12 -530 -37 -546 -8 -5 -42 -9 -76 -9 -88 0 -93 -3 -93 -61 l0
-49 370 0 370 0 0 49 c0 56 -8 61 -96 61 -74 0 -87 14 -95 101 -10 92 -11
1063 -3 1187 l7 92 109 0 c60 0 129 -5 154 -11 56 -14 134 -83 161 -141 44
-94 36 -216 -20 -321 -54 -102 -134 -147 -263 -147 -54 0 -64 -3 -69 -20 -5
-15 3 -31 28 -59 19 -21 59 -74 88 -117 83 -123 399 -646 399 -661 0 -10 47
-13 225 -13 l225 0 0 50 c0 49 -1 50 -31 50 -45 0 -63 13 -124 90 -55 68 -419
614 -431 644 -5 12 7 22 42 38 119 52 213 137 258 233 95 201 26 412 -159 486
l-60 24 -542 0 -543 0 0 -45z"/>
<path d="M8494 2581 c-45 -21 -110 -48 -145 -60 l-64 -21 3 -184 3 -183 -76
-48 c-67 -41 -76 -50 -73 -74 3 -26 4 -26 76 -22 l72 3 0 -352 c0 -249 4 -365
12 -394 18 -59 90 -127 157 -149 65 -21 161 -22 227 -3 38 12 62 29 107 78
l59 63 -5 -47 c-3 -29 0 -51 7 -57 6 -6 52 -22 101 -36 131 -39 308 -46 425
-16 201 51 318 182 328 367 7 136 -39 229 -137 278 -53 27 -59 28 -242 66
-156 32 -204 51 -224 91 -21 40 -19 106 5 145 62 99 277 105 371 10 21 -21 28
-39 33 -96 l7 -70 44 0 c52 0 51 -4 60 181 l6 115 -63 22 c-135 47 -321 52
-447 13 -175 -54 -271 -176 -271 -345 0 -129 46 -213 143 -260 29 -15 124 -44
211 -66 175 -44 216 -66 236 -126 65 -195 -231 -304 -419 -155 -46 37 -51 49
-60 145 l-6 71 -45 0 -45 0 -3 -87 -3 -86 -74 -7 c-90 -9 -149 7 -179 48 -20
27 -21 42 -24 343 l-3 314 125 0 c141 0 130 -8 141 97 l7 61 -136 -5 -136 -6
5 89 c3 49 11 151 16 227 8 105 7 142 -2 153 -15 18 -11 19 -105 -25z"/>
<path d="M7635 2219 c-216 -36 -345 -172 -345 -363 0 -129 46 -213 143 -260
29 -15 124 -44 211 -66 175 -44 216 -66 236 -126 65 -195 -231 -304 -419 -155
-46 37 -51 49 -60 145 l-6 71 -45 0 -45 0 -7 -120 c-3 -66 -9 -139 -11 -162
-3 -25 0 -47 7 -52 6 -6 52 -22 101 -36 131 -39 308 -46 425 -16 201 51 318
182 328 367 7 136 -39 229 -137 278 -53 27 -59 28 -242 66 -156 32 -204 51
-224 91 -21 40 -19 106 5 145 62 99 277 105 371 10 21 -21 28 -39 33 -96 l7
-70 44 0 c52 0 51 -4 60 181 l6 115 -63 22 c-110 38 -258 51 -373 31z"/>
<path d="M3072 2209 c-66 -13 -141 -50 -257 -129 -97 -67 -107 -76 -134 -133
-49 -104 -64 -198 -58 -361 3 -109 9 -154 26 -200 77 -214 253 -325 516 -326
116 0 189 16 292 65 64 30 75 39 97 84 29 57 32 74 13 90 -10 8 -32 3 -87 -20
-94 -40 -208 -50 -292 -25 -144 42 -238 159 -263 329 l-7 44 259 6 c190 5 281
11 343 24 l85 18 3 84 c3 101 -9 167 -47 247 -76 160 -279 245 -489 203z m133
-148 c60 -35 88 -99 101 -227 l6 -71 -32 -7 c-42 -8 -298 -8 -339 0 -27 6 -31
11 -31 38 0 53 21 148 40 186 50 98 164 135 255 81z"/>
<path d="M4203 2205 c-104 -28 -314 -150 -396 -230 -81 -79 -120 -205 -121
-390 0 -198 41 -313 149 -413 82 -77 147 -104 270 -109 109 -5 125 2 277 126
l103 83 3 -288 c2 -159 0 -308 -3 -331 -6 -39 -10 -43 -43 -53 -20 -5 -55 -10
-77 -10 -75 0 -85 -7 -85 -56 l0 -44 340 0 340 0 0 44 c0 42 -1 44 -37 50 -21
3 -53 6 -70 6 -24 0 -37 7 -50 27 -17 25 -18 73 -18 698 0 639 5 767 31 857 3
11 -4 22 -23 31 -27 15 -30 13 -89 -34 l-62 -49 -77 36 c-131 60 -256 77 -362
49z m152 -164 c24 -11 64 -38 89 -61 l46 -43 0 -261 0 -261 -31 -38 c-69 -84
-196 -120 -294 -83 -129 50 -203 250 -176 475 22 179 70 256 181 292 37 13
136 2 185 -20z"/>
<path d="M5250 2184 c-104 -31 -267 -64 -322 -64 -26 0 -28 -2 -28 -44 0 -50
8 -56 79 -56 90 0 85 21 91 -387 5 -348 6 -359 28 -400 55 -103 138 -153 271
-161 136 -8 175 6 273 96 46 42 94 86 107 97 l23 20 -3 -90 -4 -90 233 -3 232
-2 0 49 0 49 -69 4 c-39 2 -73 7 -77 11 -25 24 -31 386 -13 755 7 134 8 237 3
242 -5 5 -52 -4 -109 -21 -55 -16 -161 -40 -235 -52 l-135 -22 -3 -39 c-4 -48
6 -56 79 -56 97 0 94 9 97 -277 2 -136 1 -267 -3 -289 -7 -50 -60 -116 -116
-144 -27 -14 -58 -20 -106 -20 -83 0 -122 21 -155 82 -23 42 -23 48 -23 373 0
182 4 360 8 396 5 50 4 68 -5 71 -7 2 -60 -10 -118 -28z"/>
<path d="M6692 2209 c-66 -13 -141 -50 -257 -129 -97 -67 -107 -76 -134 -133
-49 -104 -64 -198 -58 -361 3 -109 9 -154 26 -200 77 -214 253 -325 516 -326
116 0 189 16 292 65 64 30 75 39 97 84 29 57 32 74 13 90 -10 8 -32 3 -87 -20
-94 -40 -208 -50 -292 -25 -144 42 -238 159 -263 329 l-7 44 259 6 c190 5 281
11 343 24 l85 18 3 84 c3 101 -9 167 -47 247 -76 160 -279 245 -489 203z m133
-148 c60 -35 88 -99 101 -227 l6 -71 -32 -7 c-42 -8 -298 -8 -339 0 -27 6 -31
11 -31 38 0 53 21 148 40 186 50 98 164 135 255 81z"/>
<path d="M7693 958 c-8 -11 -83 -395 -83 -427 0 -6 9 -11 19 -11 16 0 22 11
30 55 6 30 16 79 22 109 8 43 17 60 42 78 40 30 63 39 82 32 20 -8 19 -42 -6
-152 -20 -84 -20 -95 -6 -109 12 -13 21 -13 51 -3 42 13 52 44 11 34 -32 -8
-32 0 -3 127 21 93 21 98 4 124 -15 23 -23 26 -49 21 -18 -4 -48 -17 -66 -31
-19 -13 -37 -23 -39 -20 -2 2 3 38 12 80 9 43 16 83 16 91 0 17 -24 18 -37 2z"/>
<path d="M5343 948 c-8 -11 -83 -395 -83 -427 0 -6 9 -11 19 -11 16 0 22 11
30 55 6 30 16 79 22 109 8 43 17 60 42 78 40 30 63 39 82 32 20 -8 19 -42 -6
-152 -20 -84 -20 -95 -6 -109 12 -13 21 -13 51 -3 42 13 52 44 11 34 -32 -8
-32 0 -3 127 21 93 21 98 4 124 -15 23 -23 26 -49 21 -18 -4 -48 -17 -66 -31
-19 -13 -37 -23 -39 -20 -2 2 3 38 12 80 9 43 16 83 16 91 0 17 -24 18 -37 2z"/>
<path d="M6755 941 c-58 -27 -115 -98 -146 -183 -7 -21 -19 -38 -25 -38 -18 0
-27 -19 -16 -33 7 -8 7 -32 0 -70 -14 -81 -3 -144 32 -179 16 -15 39 -28 52
-28 41 0 86 36 99 78 15 53 0 98 -52 151 l-39 41 74 0 c54 0 75 4 79 14 9 23
-2 26 -90 26 -54 0 -83 4 -83 11 0 23 65 131 92 155 34 27 76 32 85 8 3 -9 -1
-31 -10 -50 -22 -45 -4 -53 22 -10 34 54 37 91 10 110 -29 20 -35 20 -84 -3z
m-34 -399 c16 -53 -6 -92 -51 -92 -44 0 -60 31 -60 116 0 110 5 116 56 62 23
-25 48 -64 55 -86z"/>
<path d="M5668 865 c-14 -28 -29 -45 -42 -47 -12 -2 -22 -11 -24 -20 -3 -14 3
-18 23 -18 23 0 26 -3 22 -22 -44 -190 -42 -231 7 -244 27 -6 131 20 141 37
12 18 -2 21 -45 9 -24 -6 -53 -9 -66 -6 -30 8 -31 38 -6 146 l18 75 59 5 c47
4 61 9 63 23 3 14 -5 17 -53 17 l-56 0 7 45 c5 38 4 45 -10 45 -9 0 -25 -19
-38 -45z"/>
<path d="M5928 865 c-14 -28 -29 -45 -42 -47 -12 -2 -22 -11 -24 -20 -3 -14 3
-18 23 -18 23 0 26 -3 22 -22 -44 -190 -42 -231 7 -244 27 -6 131 20 141 37
12 18 -2 21 -45 9 -24 -6 -53 -9 -66 -6 -30 8 -31 38 -6 146 l18 75 59 5 c47
4 61 9 63 23 3 14 -5 17 -53 17 l-56 0 7 45 c5 38 4 45 -10 45 -9 0 -25 -19
-38 -45z"/>
<path d="M9385 825 c-15 -15 -25 -36 -25 -54 0 -23 -9 -37 -42 -62 -61 -46
-61 -46 -50 -53 5 -3 32 9 60 28 l49 34 37 -47 c61 -82 43 -111 -70 -111 -48
0 -54 -2 -54 -21 0 -20 4 -21 63 -17 76 6 117 24 134 57 14 30 2 65 -46 131
-27 37 -29 45 -18 59 22 25 28 52 16 67 -16 20 -26 18 -54 -11z"/>
<path d="M7206 818 c-21 -29 -20 -45 1 -57 16 -9 14 -15 -24 -70 -23 -33 -37
-63 -32 -67 11 -7 39 24 75 83 25 42 31 46 91 58 l31 6 -30 -93 c-45 -141 -28
-184 62 -157 50 15 51 27 3 31 l-38 3 1 50 c1 29 15 84 33 129 34 88 30 103
-23 81 -17 -7 -43 -15 -58 -19 -25 -6 -28 -4 -28 19 0 20 -5 25 -24 25 -14 0
-32 -10 -40 -22z"/>
<path d="M7981 804 c-24 -39 -26 -51 -11 -56 7 -2 6 -28 -5 -76 -20 -95 -19
-108 6 -133 25 -25 58 -20 107 17 30 23 32 24 32 6 0 -33 24 -45 65 -32 41 13
50 44 10 34 -22 -5 -25 -3 -25 19 0 14 9 69 20 122 11 53 20 103 20 111 0 8
-9 14 -20 14 -11 0 -20 -1 -20 -2 0 -2 -9 -48 -19 -103 -17 -87 -24 -104 -51
-128 -34 -30 -77 -36 -87 -10 -5 13 4 73 34 226 8 42 -29 37 -56 -9z"/>
<path d="M8316 828 c-2 -7 -14 -71 -25 -143 -12 -71 -24 -138 -27 -148 -5 -15
-1 -18 17 -15 22 3 25 12 45 123 18 95 26 123 44 137 51 41 56 18 31 -123 -12
-62 -21 -119 -21 -126 0 -25 28 -13 34 15 3 15 13 68 22 117 13 70 22 95 41
113 49 45 53 15 21 -136 -24 -114 -20 -131 28 -115 31 10 45 33 20 33 -21 0
-20 15 6 142 22 103 22 108 5 125 -17 17 -19 17 -57 -3 l-39 -22 -15 22 -14
21 -42 -23 c-41 -23 -42 -23 -35 -3 5 17 2 21 -15 21 -11 0 -22 -6 -24 -12z"/>
<path d="M8730 829 c-72 -30 -123 -115 -124 -207 -1 -56 2 -66 23 -83 29 -24
58 -19 114 17 34 23 37 23 37 5 0 -32 24 -44 65 -31 40 13 50 44 11 34 -13 -3
-26 -1 -30 4 -3 5 5 65 18 133 13 68 23 125 21 127 -9 9 -114 10 -135 1z m76
-37 c9 -5 8 -29 -4 -91 -14 -72 -20 -86 -47 -106 -16 -12 -40 -26 -51 -29 -71
-21 -72 134 -3 204 30 30 78 40 105 22z"/>
<path d="M8990 837 c0 -1 -11 -67 -25 -145 -30 -171 -30 -172 -5 -172 14 0 21
9 26 38 31 179 40 198 99 226 69 33 78 6 44 -142 -20 -84 -20 -95 -6 -109 12
-13 21 -13 51 -3 42 13 52 44 11 34 -32 -8 -32 0 -3 127 21 93 21 98 4 124
-15 23 -23 26 -49 21 -18 -4 -49 -18 -69 -31 l-38 -25 0 30 c0 23 -4 30 -20
30 -11 0 -20 -1 -20 -3z"/>
<path d="M6112 653 c-18 -98 -36 -190 -39 -205 -4 -24 -2 -28 16 -28 14 0 22
8 27 28 3 15 8 34 10 43 3 11 21 18 56 22 96 12 159 80 174 188 8 58 -15 116
-49 124 -25 7 -76 -13 -109 -43 -17 -14 -18 -13 -18 16 0 24 -4 32 -18 32 -15
0 -23 -26 -50 -177z m180 120 c38 -35 11 -169 -43 -207 -25 -17 -75 -21 -96
-8 -10 6 -10 25 2 87 16 84 32 110 80 131 38 17 35 17 57 -3z"/>
<path d="M6954 816 c-42 -18 -80 -70 -94 -128 -30 -120 41 -202 144 -168 112
37 154 235 63 290 -37 23 -70 25 -113 6z m96 -48 c25 -27 27 -105 4 -151 -51
-102 -154 -85 -154 25 0 53 28 120 57 137 30 17 71 12 93 -11z"/>
</g>
</svg>
